<svg xmlns="http://www.w3.org/2000/svg" width="349.995" height="231.682" viewBox="0 0 349.995 231.682"><g transform="translate(925.719 -559.579)"><path d="M-594.228,680.7l-58.056,15.735-176.057,47.716-11.033,2.99-12.029-1.719-20.343-18.633-30.644-28.07-17.172-15.73,4.608-1.024.336-.075,221.873-49.3Z" transform="translate(3.039 41.483)" fill="#bfbfbf"/><path d="M-830.878,725.169l92.649-26.25-4.632-16.471-105,30.368Z" transform="translate(38.427 66.092)" fill="#919191"/><path d="M-653.713,680.246-829.77,727.961l-43.4-17.361-30.643-28.07-12.564-16.753-.285-.378s.211.106.621.3c9.033,4.364,115.323,53.646,229.3,13.827C-635.674,661.687-636.312,667.628-653.713,680.246Z" transform="translate(4.468 57.676)" fill="#b2b2b2"/><g transform="translate(-894.117 586.609)"><path d="M-869.053,636.7l-3.976-1.139v36.557l2.924,2.2Z" transform="translate(920.123 -543.66)" fill="#515151"/><path d="M-818.8,659.02l-52.338,13.146-.024-20.534L-818.8,639.9Z" transform="translate(921.042 -541.517)" fill="#444"/><path d="M-767.532,575.48l-3.911-1.451L-904.56,590.952l7.116,3.933Z" transform="translate(904.56 -574.029)" fill="#636363"/><path d="M-768.846,672.916-901.9,700.985V591.611L-768.846,575Z" transform="translate(905.874 -573.549)" fill="#383838"/><path d="M-773.024,579.232v78.281a1.726,1.726,0,0,1-1.408,1.7l-2.3.429-12.362,2.309-4.575.854-16.229,3.029-26.175,4.888-7.1,1.325-54.585,11.868a1.727,1.727,0,0,1-2.045-1.7V594.7a1.728,1.728,0,0,1,1.527-1.715l123.319-15.473A1.726,1.726,0,0,1-773.024,579.232Z" transform="translate(906.911 -572.313)" fill="#fff"/><path d="M-900.584,586.5l-3.976-1.139V693.217l3.976,2.655Z" transform="translate(904.56 -568.436)" fill="#515151"/><path d="M-898.427,656.911l123.319-24.7-89.54,13.71Z" transform="translate(907.587 -545.313)" fill="#fff"/><g transform="translate(63.661 66.199)"><path d="M-795.414,639.477l-12.363,2.5-4.863.98-15.341,3.055-27.753,5.538-6.12,1.209-.084-22.794,66.4-11.614Z" transform="translate(861.936 -618.352)" fill="#7ee8ff"/><path d="M-844.014,627.443l13.984,14.081-27.753,5.538Z" transform="translate(863.986 -613.864)" fill="#fff"/><path d="M-824.067,635.468l-4.863.98,2.52-4.908Z" transform="translate(878.227 -611.843)" fill="#fff"/><ellipse cx="3.017" cy="3.771" rx="3.017" ry="3.771" transform="translate(38.048 9.938)" fill="#fff"/></g><path d="M-773.024,579.232v18.792L-899.8,616.9V594.7a1.728,1.728,0,0,1,1.527-1.715l123.319-15.473A1.726,1.726,0,0,1-773.024,579.232Z" transform="translate(906.911 -572.313)" fill="#7ee8ff"/><path d="M-894.1,595.243v.324a1.124,1.124,0,0,0,1.27,1.122l67.2-8.806a1.123,1.123,0,0,0,.978-1.107h0a1.123,1.123,0,0,0-1.265-1.122l-67.2,8.48A1.124,1.124,0,0,0-894.1,595.243Z" transform="translate(909.72 -568.295)" fill="#fff"/><path d="M-864.927,607.464l0,.324a1.081,1.081,0,0,0,1.27,1.078l67.221-11.112a1.171,1.171,0,0,0,.977-1.14h0a1.081,1.081,0,0,0-1.263-1.08l-67.218,10.788A1.174,1.174,0,0,0-864.927,607.464Z" transform="translate(924.12 -563.421)" fill="#c6c4c4"/><path d="M-864.749,605.373v.178c0,.372.6.6,1.273.494l66.538-10.736c.557-.091.974-.387.975-.693h0c0-.37-.594-.6-1.268-.5l-66.537,10.56C-864.328,604.77-864.746,605.067-864.749,605.373Z" transform="translate(924.209 -564.125)" fill="#c6c4c4"/><g transform="translate(12.124 43.622)"><path d="M-896.443,609.521v30.926l37.379-7.375-.168-29.836Z" transform="translate(896.443 -603.235)" fill="#f5f5f5"/><path d="M-896.443,636.375l12.32-24.891,8.548,12.32,7.794-8.3L-859.064,629Z" transform="translate(896.443 -599.164)" fill="#e0e0e0"/><ellipse cx="3.017" cy="3.771" rx="3.017" ry="3.771" transform="translate(18.857 5.783)" fill="#e0e0e0"/><g transform="translate(0 35.196)"><path d="M-896.443,630.85v17.125l21.312-4.422V626.8Z" transform="translate(896.443 -626.801)" fill="#f5f5f5"/><path d="M-896.443,645.6l7.056-13.993,4.9,6.832,4.464-4.957,4.9,7.7Z" transform="translate(896.443 -624.427)" fill="#e0e0e0"/><ellipse cx="2.164" cy="1.725" rx="2.164" ry="1.725" transform="translate(10.635 7.366) rotate(-85.39)" fill="#e0e0e0"/></g><g transform="translate(22.628 30.709)"><path d="M-881.292,628.011v16.753l20.849-4.578V623.8Z" transform="translate(881.292 -623.796)" fill="#f5f5f5"/><path d="M-881.292,642.423l6.9-13.883,4.79,6.548,4.367-4.972,4.79,7.729Z" transform="translate(881.292 -621.455)" fill="#e0e0e0"/><ellipse cx="2.123" cy="1.682" rx="2.123" ry="1.682" transform="translate(10.317 7.032) rotate(-82.699)" fill="#e0e0e0"/></g></g><g transform="translate(60.431 39.984)"><path d="M-864.1,612.991v20.958a1.126,1.126,0,0,0,1.323,1.107l67.007-11.917a1.124,1.124,0,0,0,.927-1.108v-20.1a1.125,1.125,0,0,0-1.308-1.11l-67.007,11.066A1.126,1.126,0,0,0-864.1,612.991Z" transform="translate(864.099 -600.8)" fill="#e0e0e0"/><path d="M-862.5,610.125l1.51-3.125a1.1,1.1,0,0,1,.82-.611l9.538-1.534a1.106,1.106,0,0,1,.978.33l3.495,3.683Z" transform="translate(864.888 -598.805)" fill="#7ee8ff"/><path d="M-863.678,613.244V634.2a1.125,1.125,0,0,0,1.322,1.108l67.009-11.919a1.125,1.125,0,0,0,.927-1.108v-20.1a1.124,1.124,0,0,0-1.308-1.11l-67.007,11.067A1.124,1.124,0,0,0-863.678,613.244Z" transform="translate(864.307 -600.675)" fill="#7ee8ff"/><path d="M-862.619,616.659l2.317-3.861,60.746-9.91,2.574,3.089-3.346-1.93-58.944,9.524Z" transform="translate(864.829 -599.769)" fill="#7ee8ff"/></g></g><g transform="translate(-858.663 701.37)"><path d="M-869.99,677.406v2.577l23.726-7.065-6.015-.668Z" transform="translate(886.169 -640.312)" fill="#ebebeb"/><path d="M-880.822,669.148l73.989-18.282,16.154,15.99-73.91,21.2Z" transform="translate(880.822 -650.866)" fill="#fff"/><path d="M-880.822,663.106v2.484l16.178,18.9v-2.577Z" transform="translate(880.822 -644.825)" fill="#ebebeb"/><g transform="translate(4.408 16.548)"><path d="M-877.871,664.046l7.908-2.1,1.669,1.862-7.945,2.244Z" transform="translate(877.871 -661.946)" fill="#ebebeb"/><path d="M-876.4,665.772l7.908-2.1,1.758,1.766-7.938,2.339Z" transform="translate(878.598 -661.094)" fill="#ebebeb"/><path d="M-874.824,667.571l7.808-2.384,1.73,1.807-7.935,2.529Z" transform="translate(879.375 -660.346)" fill="#ebebeb"/><path d="M-873.294,669.249l7.808-2.384,1.814,1.708-8.019,2.624Z" transform="translate(880.13 -659.518)" fill="#ebebeb"/></g></g><g transform="translate(-834.642 693.222)"><path d="M-747.442,671.549l.037,1.874a2.6,2.6,0,0,1-1.816,2.532l-81.743,25.858-3.25-2.742,8.348-3.6Z" transform="translate(879.806 -632.51)" fill="#172123"/><path d="M-863.453,667.843l86.7-22.378a1.712,1.712,0,0,1,1.559.373l42.254,37.187a1.712,1.712,0,0,1-.623,2.92l-90.871,28.24a1.712,1.712,0,0,1-1.791-.5l-38.084-43.049A1.713,1.713,0,0,1-863.453,667.843Z" transform="translate(864.739 -645.411)" fill="#243235"/><path d="M-739.31,682.325l-48.93,15.207-30.657,9.527-7.122,2.214-35.373-39.985,82.941-21.407Z" transform="translate(866.392 -644.192)" fill="#fff"/><g transform="translate(19.502 7.33)"><g transform="translate(0 14.528)"><path d="M-840.933,660.614l3.476,3.136c.5.453.409.954-.2,1.12l-8.209,2.242a2.409,2.409,0,0,1-2.013-.515l-3.477-3.136c-.5-.451-.409-.953.2-1.12l.051-.013-.122-.469,1.558-.424.718.3,6-1.639A2.42,2.42,0,0,1-840.933,660.614Z" transform="translate(851.682 -660.045)" fill="#d8d8d8"/><path d="M-851.124,663.185l.016-.4c0-.091.076-.161.2-.194l8.173-2.233a.852.852,0,0,1,.5.043l.623.231-.742-.133a.773.773,0,0,0-.323.006l-8.035,2.194a.284.284,0,0,0-.172.112Z" transform="translate(851.958 -659.902)" fill="#bcbcbc"/></g><g transform="translate(13.302 10.896)"><path d="M-832.027,658.183l3.476,3.136c.5.451.408.953-.2,1.12l-8.207,2.24a2.416,2.416,0,0,1-2.015-.514l-3.476-3.136c-.5-.453-.409-.953.2-1.12l.049-.015-.122-.468,1.558-.426.72.3,6-1.638A2.416,2.416,0,0,1-832.027,658.183Z" transform="translate(842.776 -657.614)" fill="#d8d8d8"/><path d="M-842.218,660.753l.016-.4c0-.09.076-.161.2-.194l8.173-2.231a.851.851,0,0,1,.5.042l.623.231-.742-.131a.756.756,0,0,0-.324.006l-8.034,2.194a.276.276,0,0,0-.172.111Z" transform="translate(843.052 -657.47)" fill="#bcbcbc"/></g><g transform="translate(26.603 7.263)"><path d="M-823.122,655.751l3.475,3.137c.5.451.409.953-.2,1.12l-8.209,2.242a2.414,2.414,0,0,1-2.013-.515l-3.475-3.136c-.5-.451-.411-.953.2-1.12l.051-.013-.123-.469,1.558-.426.72.306,6-1.64A2.412,2.412,0,0,1-823.122,655.751Z" transform="translate(833.871 -655.182)" fill="#d8d8d8"/><path d="M-833.312,658.321l.016-.4c0-.09.076-.16.2-.194l8.173-2.231a.862.862,0,0,1,.5.042l.623.233-.742-.133a.75.75,0,0,0-.323.006l-8.034,2.194a.291.291,0,0,0-.173.111Z" transform="translate(834.146 -655.037)" fill="#bcbcbc"/></g><g transform="translate(39.904 3.632)"><path d="M-814.216,653.319l3.476,3.137c.5.453.408.953-.2,1.12l-8.207,2.242a2.412,2.412,0,0,1-2.015-.515l-3.476-3.137c-.5-.451-.409-.953.2-1.12l.051-.013-.123-.469,1.558-.424.718.3,6-1.638A2.419,2.419,0,0,1-814.216,653.319Z" transform="translate(824.965 -652.75)" fill="#d8d8d8"/><path d="M-824.407,655.889l.016-.4c0-.091.076-.161.2-.194l8.173-2.233a.864.864,0,0,1,.5.042l.623.233-.742-.133a.779.779,0,0,0-.324.006L-824,655.4a.289.289,0,0,0-.172.111Z" transform="translate(825.241 -652.607)" fill="#bcbcbc"/></g><g transform="translate(53.205)"><path d="M-805.311,650.887l3.476,3.137c.5.453.409.954-.2,1.122l-8.207,2.24a2.412,2.412,0,0,1-2.015-.515l-3.476-3.137c-.5-.451-.409-.953.2-1.12l.049-.013-.122-.467,1.558-.426.72.3,6-1.639A2.416,2.416,0,0,1-805.311,650.887Z" transform="translate(816.059 -650.318)" fill="#d8d8d8"/><path d="M-815.5,653.458l.016-.4c0-.09.076-.161.2-.194l8.173-2.231a.852.852,0,0,1,.5.042l.621.232-.741-.131a.73.73,0,0,0-.324.006l-8.034,2.192a.284.284,0,0,0-.172.112Z" transform="translate(816.335 -650.174)" fill="#bcbcbc"/></g></g><path d="M-795.1,689.849l-29.5,9.037-22.185-24.65a2.764,2.764,0,0,1,1.3-4.508l21.818-6.177a2.767,2.767,0,0,1,2.7.694Z" transform="translate(873.251 -636.508)" fill="#c6c4c4"/><g transform="translate(30.117 30.995)"><path d="M-821.488,667.153l-21.776,6a1.24,1.24,0,0,1-1.108-.257l-.072-.072c-.242-.243-.139-.523.23-.624l21.776-6a1.25,1.25,0,0,1,1.108.257l.072.072C-821.016,666.772-821.119,667.052-821.488,667.153Z" transform="translate(844.575 -666.163)" fill="#d8d8d8"/><path d="M-820.056,668.59l-21.776,6a1.249,1.249,0,0,1-1.108-.257l-.072-.072c-.243-.244-.14-.523.23-.624l21.776-6a1.241,1.241,0,0,1,1.108.257l.072.07C-819.584,668.21-819.687,668.489-820.056,668.59Z" transform="translate(845.281 -665.454)" fill="#d8d8d8"/><path d="M-818.625,670.028l-21.778,6a1.251,1.251,0,0,1-1.108-.257l-.07-.072c-.244-.243-.14-.523.23-.626l21.776-6a1.251,1.251,0,0,1,1.108.257l.072.072C-818.153,669.645-818.256,669.926-818.625,670.028Z" transform="translate(845.987 -664.745)" fill="#d8d8d8"/><path d="M-817.2,671.465l-21.776,6a1.251,1.251,0,0,1-1.108-.257l-.072-.072c-.242-.243-.139-.524.23-.626l21.776-6a1.253,1.253,0,0,1,1.11.257l.07.072C-816.722,671.082-816.825,671.363-817.2,671.465Z" transform="translate(846.693 -664.036)" fill="#d8d8d8"/><path d="M-815.765,672.9l-21.776,6a1.25,1.25,0,0,1-1.108-.257l-.072-.072c-.242-.243-.139-.524.23-.626l21.776-6a1.249,1.249,0,0,1,1.108.257l.072.072C-815.291,672.519-815.394,672.8-815.765,672.9Z" transform="translate(847.399 -663.327)" fill="#d8d8d8"/></g></g><g transform="translate(-728.403 570.231)"><path d="M-771.953,548.541l-35.639,121.444L-707,688.555l34.23-125.015Z" transform="translate(807.592 -548.541)" fill="#fff"/><g transform="translate(3.296 2.786)"><path d="M-804.016,665.127l.734-2.5q1-3.42,2.008-6.842,1.511-5.146,3.021-10.3l3.735-12.723,4.2-14.315,4.357-14.846q2.138-7.28,4.274-14.56,1.94-6.607,3.878-13.214l3.24-11.034,2.3-7.824c.366-1.245.724-2.493,1.1-3.736a2.086,2.086,0,0,1,2.351-1.569c.41.053.819.12,1.227.18l6.816,1,11.214,1.646,14.088,2.069,15.23,2.236,14.885,2.184,12.849,1.887,9.16,1.345c1.3.191,2.629.331,3.925.577a2.046,2.046,0,0,1,1.584,2.656c-.11.41-.225.82-.338,1.23l-1.575,5.759q-1.278,4.677-2.559,9.354l-3.3,12.068-3.816,13.947q-2.033,7.435-4.068,14.871-2.027,7.412-4.056,14.826l-3.829,14-3.325,12.155q-1.3,4.754-2.6,9.509l-1.609,5.882c-.4,1.448-.714,3.293-2.788,2.937-1.237-.211-2.471-.444-3.706-.666l-8.922-1.6-12.523-2.254-14.687-2.642-15.188-2.732-14.271-2.568-11.693-2.1-7.671-1.381c-1.615-.29-4.274-.423-3.644-2.9a.482.482,0,0,0-.929-.255,3,3,0,0,0,2.382,3.737c.552.106,1.107.2,1.659.3l7.483,1.346,11.706,2.107,14.338,2.579L-752,677.708l14.763,2.656,12.69,2.283,8.959,1.613c1.212.217,2.422.442,3.635.653a3.029,3.029,0,0,0,3.571-2.2c.11-.385.212-.775.318-1.163l1.56-5.7q1.282-4.691,2.566-9.378,1.67-6.1,3.339-12.208,1.926-7.036,3.85-14.072l4.1-15,4.1-15q1.924-7.036,3.85-14.073,1.67-6.1,3.339-12.207l2.575-9.412q.776-2.834,1.551-5.668c.106-.388.216-.775.318-1.163a3,3,0,0,0-2.231-3.8c-1.19-.235-2.416-.354-3.617-.53L-691.825,562l-12.86-1.888-14.978-2.2-15.367-2.257-14.224-2.089-11.349-1.666-6.8-1-1.178-.172a3.036,3.036,0,0,0-3.49,2.158c-.351,1.145-.674,2.3-1.011,3.446q-1.131,3.854-2.263,7.709l-3.228,11q-1.953,6.66-3.908,13.318l-4.286,14.6q-2.208,7.521-4.414,15.039l-4.24,14.445q-1.889,6.442-3.78,12.882l-3.036,10.344-2,6.817-.7,2.381A.482.482,0,0,0-804.016,665.127Z" transform="translate(805.044 -550.695)" fill="#dbdbdb"/></g><path d="M-775.813,557.518l-3.225,11.162,23.316,3.473,2.977-11.162Z" transform="translate(815.965 -545.909)" fill="#ebebeb"/><path d="M-796.336,627.718l-3.225,11.162,23.316,4.217,2.977-11.162Z" transform="translate(809.947 -525.325)" fill="#ebebeb"/><path d="M-787.9,618.128l-3.225,11.162,23.316,4.217,2.977-11.162Z" transform="translate(812.422 -528.137)" fill="#ebebeb"/><path d="M-775.622,631.49l-3.224,11.162,23.316,4.217,2.977-11.162Z" transform="translate(816.021 -524.218)" fill="#ebebeb"/><path d="M-780.376,585.751l-9.712,33.666a2.62,2.62,0,0,0,2.068,3.308l74.364,12.974a2.62,2.62,0,0,0,2.987-1.924l9.086-35.045a2.62,2.62,0,0,0-2.13-3.247l-73.738-11.594A2.619,2.619,0,0,0-780.376,585.751Z" transform="translate(812.695 -538.186)" fill="none" stroke="#ebebeb" stroke-miterlimit="10" stroke-width="0.892"/></g><path d="M-614.226,718.41s-4.525-50.787-25.9-65.37c0,0-8.046-7.041-27.155-7.292l-4.273-6.69a4.066,4.066,0,0,0-4.328-1.776c-.839.191-1.844.433-2.983.73l-3.573-11.719c1.7-4.188,5.831-15.7,8.636-20.28a13.274,13.274,0,0,0,3.861-8.5s4.941-18.938-5.738-26.481-19.764-1.843-19.764-1.843-7.81-8.046-16.737-5.7-9.244,4.189-14.822,5.531c0,0-20.242.334-19.127,11.9,0,0-5.1,3.688-4.463,9.553.614,5.65,6.4,6.947,11.1,6.436l2.32,17.97s-3.293,13.769-2.287,14.273a30.907,30.907,0,0,0,5.28,1.005s5.311,14.991,9.9,16.127c2.2.545,7.18-.514,12.125-2.243l3.071,7.616c-1.307.969-2.576,1.992-3.791,3.078a7.018,7.018,0,0,0-2.16,3.644l-2.031,8.737s-26.9,10.559-28.412,26.4c-.094.992-.155,2.084-.19,3.259l-20.661-9.245-1.114-1.7a9.532,9.532,0,0,0-2.538-2.6h0a9.5,9.5,0,0,0-2.14-1.107c-1.713-.826-7.326-3.555-10.952-5.577l6.146-6.93a12.508,12.508,0,0,0,2.869-5.662l.548-2.548a.993.993,0,0,0-1.534-.883,1.024,1.024,0,0,0-.194.169l-12.034,13.367a2.845,2.845,0,0,0-2.687.015l-12.7,5.531-.14,2.428c-1.289.251-3.373.813-3.631,1.845-.239.959-.022,7,.169,11.267l-2.3,2.56-1.634,5.529,4.9-1.634,1.522-1.716a2.1,2.1,0,0,0,1.243-.923,3.777,3.777,0,0,0,.42-.951l2.323-2.618-.354,2.061s4.776,4.651,6.663,3.268c1.543-1.132-.031-3.613-.653-4.473a19.753,19.753,0,0,0,3.414-.566c2.181,2.482,5.178,5.791,10.686,7.555a14.354,14.354,0,0,0,11.187-1.007h0s6.912,3.017,10.306,6.285c2.824,2.72,11.562,10.743,14.42,13.364,1.624,14.776,3.917,28.7,3.917,28.7s-1.255,5.018-.9,8.382a24.473,24.473,0,0,0-4.739.959c-6.5,1.883-20.843.217-27.626-.736a11.644,11.644,0,0,0-7.177,1.293c-7.587-1.32-30.315-5.78-35.738-12.664a10.327,10.327,0,0,0-3.117-10.382l3.395-1.268.754-2.639L-838.56,707.5c.014-3.3-1.375-4.493-2.475-4.92a1.171,1.171,0,0,0-1.414.556l-.081-.09c.436-4.318-1.165-5.767-2.4-6.248a1.239,1.239,0,0,0-1.592.993l-.14.615-1.736-1.946-.669.194c-.3-2.331-1.456-3.262-2.4-3.628a1.24,1.24,0,0,0-1.592.993l-.88,3.841c-.784-3.178-2.591-4.037-3.9-4.218a1.332,1.332,0,0,0-1.513,1.3l-.054,4.714-5.42,1.576-1.425,2.388,7.825,8.982a155.468,155.468,0,0,1,.058,15.73,10.191,10.191,0,0,0,2.021,6.754c2.276,3.033,5.664,7.45,7.693,9.636l.015.015a13.631,13.631,0,0,0,7.9,5.263c7.542,2.137,13.3,8.636,13.3,8.636s13.326,14.583,17.1,16.594h75.318l.025-.036a259.813,259.813,0,0,0,33.041-3.1l-.018.12c.025-.042.049-.085.075-.128C-669.677,766.979-625.534,753.576-614.226,718.41Z" transform="translate(29.352 7.168)" fill="#cecece" opacity="0.63" style="mix-blend-mode:multiply;isolation:isolate"/><g transform="translate(-838.759 569.276)"><g transform="translate(115.604)"><path d="M-765.6,619.612l6.286,15.588s22.88-1.005,29.919-13.577l-6.285-20.617Z" transform="translate(802.182 -543.38)" fill="#f7ab86"/><path d="M-782.773,590.977l2.539,19.67s-3.293,13.771-2.287,14.273a30.8,30.8,0,0,0,5.28,1.007s5.311,14.991,9.9,16.128c3.859.954,16.271-3.023,22.046-6.9,8.573-5.749,13.671-14.458,13.827-16.592.748-10.228,4.508-38.9-7.813-44.435S-777.995,563.321-782.773,590.977Z" transform="translate(793.707 -558.829)" fill="#ffba94"/><ellipse cx="9.524" cy="8.678" rx="9.524" ry="8.678" transform="translate(21.312 62.047) rotate(-63.938)" fill="#ffba94"/><path d="M-770.193,591.97s7.209,3.352,6.915,13.24a12.574,12.574,0,0,0,11.884,5.195s5.87,11.565,13.645,13.242c0,0,4.4.5,5.428-1.341s6.709-18.437,9.893-22.626l-27.939-27.655-17.166,12.57Z" transform="translate(799.916 -557.685)" fill="#183a49"/><path d="M-766.449,568.383s-20.242.336-19.127,11.9c0,0-5.1,3.686-4.463,9.553s6.854,7.039,11.635,6.369,8.926,6.7,14.664,3.352,8.607-10.725,13.548-6.2,6.216,20.783,20.72,19.274,20.084-10.558,20.084-15.754c0,0,4.941-18.938-5.738-26.481s-19.764-1.844-19.764-1.844-7.81-8.044-16.735-5.7S-760.871,567.042-766.449,568.383Z" transform="translate(790.094 -562.424)" fill="#183a49"/><g transform="translate(16.127 46.569)"><path d="M-775.26,596.01a2.329,2.329,0,0,1-1.839,2.679,2.329,2.329,0,0,1-2.19-2.4,2.33,2.33,0,0,1,1.839-2.681A2.331,2.331,0,0,1-775.26,596.01Z" transform="translate(779.296 -593.604)" fill="#183a49"/></g><g transform="translate(44.011 38.746)"><path d="M-760.627,595.52s.7-9.692,9.783-6.515,1.921,31.934-7.861,20.971Z" transform="translate(760.627 -588.366)" fill="#ffba94"/><path d="M-754.441,601.812a.814.814,0,0,1-.557-.175l-3.553-2.782,4.169-5.187a.824.824,0,0,1,1.147-.125.8.8,0,0,1,.139,1.128l-3.163,3.935,2.273,1.782a.793.793,0,0,1,.136,1.128A.808.808,0,0,1-754.441,601.812Z" transform="translate(761.652 -585.898)" fill="#ff806d"/></g><path d="M-779.558,590.908a4.865,4.865,0,0,0,1.848.56c.678.115,1.356.246,1.942.379s1.256.311,1.916.5a4.831,4.831,0,0,0,1.9.3c.551-.088.89-.621.46-1.473a5.436,5.436,0,0,0-3.626-2.363,5.321,5.321,0,0,0-4.255.562C-780.108,589.956-780.02,590.588-779.558,590.908Z" transform="translate(795.118 -549.489)" fill="#183a49"/><path d="M-766.981,607.816l-9.91,2.16S-770.987,617.214-766.981,607.816Z" transform="translate(796.611 -540.02)" fill="#ff806d"/></g><path d="M-835.087,678.162a10.526,10.526,0,0,1,5.253,11.9l-7.514,1.925-5.405-7.919,2.89-3.395Z" transform="translate(879.708 -505.3)" fill="#f7ab86"/><path d="M-792.23,699.3s-31.68-4.778-38.217-13.075c0,0-8.3-3.017-11.063,10.81,0,0,13.327,14.583,17.1,16.595h22.126Z" transform="translate(880.321 -501.458)" fill="#ffba94"/><path d="M-757.979,698.712a3.875,3.875,0,0,0-1.5-1.768c-1.918-1.195-1.706-5.234-11.565-2.376-6.5,1.885-20.843.218-27.625-.736a11.644,11.644,0,0,0-8.427,2.079c-3.244,2.337-7.695,6.569-11.86,13.957h58.723S-755.8,703.8-757.979,698.712Z" transform="translate(891.455 -497.697)" fill="#7ee8ff"/><path d="M-791.93,659.3a14.351,14.351,0,0,1-11.187,1.005c-6.285-2.01-9.3-6.033-11.565-8.548s-2.765,1.258-2.765,1.258,2.765,3.393.88,4.776-6.663-3.268-6.663-3.268l.754-4.4,8.548-2.01,20.489,3.268Z" transform="translate(889.344 -520.128)" fill="#f7ab86"/><path d="M-822.751,641.974s-4.273.5-4.651,2.012.378,15.585.378,15.585,2.263,1.383,3.519-.5,1.258-9.176,1.258-9.176Z" transform="translate(887.232 -523.161)" fill="#f7ab86"/><path d="M-795.753,647.8l2.137-2.639s-11.312-5.405-14.078-7.416-4.273-.88-4.273-.88l-12.7,5.531-.754,13.072Z" transform="translate(888.264 -525.84)" fill="#ffba94"/><g transform="translate(56.06 97.307)"><path d="M-793.274,628.621l-.55,2.546a12.514,12.514,0,0,1-2.868,5.664l-28.367,31.985-4.9,1.634,1.634-5.531L-795,627.907a1.085,1.085,0,0,1,.194-.17A1,1,0,0,1-793.274,628.621Z" transform="translate(829.961 -627.575)" fill="#273238"/><path d="M-793.274,628.621l-.55,2.546a12.514,12.514,0,0,1-2.868,5.664l-28.367,31.985-4.9,1.634,4.148-3.77s28.659-31.174,30.293-34.818a7.689,7.689,0,0,0,.711-4.125A1,1,0,0,1-793.274,628.621Z" transform="translate(829.961 -627.575)" fill="#334247"/></g><g transform="translate(64.501 118.161)"><path d="M-765.755,683.041s-11.941-10.936-15.334-14.2-10.307-6.285-10.307-6.285-2.263-3.017-2.388-3.9c0,0-9.051,1.383-15.838-3.9,0,0-9.427,4.4-14.455-.376,0,0-1.084-1.834,1.434-3.059a9.28,9.28,0,0,1,2.336-.713c5.405-1.005,18.855-8.8,20.489-9.049a14.776,14.776,0,0,1,3.956.533,9.484,9.484,0,0,1,3.326,1.456h0a9.536,9.536,0,0,1,2.538,2.6l1.116,1.7,22.75,10.182Z" transform="translate(824.309 -641.537)" fill="#ffba94"/><path d="M-793.087,643.552l-3.29-.3a14.4,14.4,0,0,0-7.846,1.525c-2.093,1.074-4.511,2.324-5.665,2.966a53.863,53.863,0,0,1-7.961,2.848l-5.345.729a9.281,9.281,0,0,1,2.336-.713c5.405-1.005,18.855-8.8,20.489-9.049a14.776,14.776,0,0,1,3.956.533A9.484,9.484,0,0,1-793.087,643.552Z" transform="translate(824.86 -641.537)" fill="#f7ab86"/></g><path d="M-758.147,639.155s-26.9,10.561-28.411,26.4,5.28,57.075,5.28,57.075-1.509,6.034-.754,9.3a48.458,48.458,0,0,0,3.519,8.549v6.788s104.845.251,123.2-56.823c0,0-4.525-50.789-25.9-65.372,0,0-8.046-7.039-27.154-7.292l-37.462,9.807Z" transform="translate(907.336 -535.1)" fill="#7ee8ff"/><path d="M-726.427,612.151c-6.848,1.562-24.7,6.479-36.99,17.454a7.027,7.027,0,0,0-2.16,3.646l-2.031,8.736,7.292-3.771s31.68-5.531,42.49-17.6l-4.273-6.69A4.063,4.063,0,0,0-726.427,612.151Z" transform="translate(916.797 -537.931)" fill="#7ee8ff"/><path d="M-720.236,617.784s-9.553,15.841-42.49,17.6C-762.726,635.384-728.783,628.6-720.236,617.784Z" transform="translate(919.206 -535.1)" fill="#62dff4"/><path d="M-782.927,648.254s29.921,4.778,42.492,31.68c0,0,3.771,35.2-4.527,49.28,0,0,5.22-35.363.5-50.034C-751.247,658.059-782.927,648.254-782.927,648.254Z" transform="translate(909.236 -520.061)" fill="#62dff4"/><path d="M-862.278,662.172a159.437,159.437,0,0,1,.091,16.292,10.176,10.176,0,0,0,2.021,6.754c2.275,3.033,5.662,7.45,7.692,9.635,3.269,3.52,5.405-9.049,5.405-9.049l-1.005-9.177Z" transform="translate(870.071 -513.192)" fill="#f7ab86"/><path d="M-862.933,658.511l.084-7.351a1.333,1.333,0,0,1,1.513-1.305c1.606.224,3.962,1.467,4.255,6.766a1.331,1.331,0,0,1-.666,1.228l-3.19,1.833A1.332,1.332,0,0,1-862.933,658.511Z" transform="translate(869.748 -519.278)" fill="#f7ab86"/><path d="M-859.756,657.653l1.649-7.2a1.241,1.241,0,0,1,1.592-.995c1.344.524,3.123,2.19,2.24,7.445a1.388,1.388,0,0,1-.841,1.078l-3.162,1.195A1.191,1.191,0,0,1-859.756,657.653Z" transform="translate(871.296 -519.501)" fill="#f7ab86"/><path d="M-855.38,660.176l1.649-7.2a1.241,1.241,0,0,1,1.592-.993c1.344.523,3.123,2.19,2.24,7.446a1.387,1.387,0,0,1-.841,1.078l-3.16,1.193A1.191,1.191,0,0,1-855.38,660.176Z" transform="translate(873.456 -518.255)" fill="#f7ab86"/><path d="M-852.771,664.049l1.649-7.2a1.241,1.241,0,0,1,1.592-.995c1.344.524,3.123,2.19,2.24,7.445a1.387,1.387,0,0,1-.841,1.078l-3.162,1.195A1.191,1.191,0,0,1-852.771,664.049Z" transform="translate(874.744 -516.344)" fill="#f7ab86"/><path d="M-866.071,654.935l-1.424,2.388,28.03,32.178,2.011-4.148Z" transform="translate(867.496 -516.764)" fill="#384951"/><path d="M-829.133,676.563l-.754,2.64-11.438,4.274-.754-3.394Z" transform="translate(880.04 -506.089)" fill="#384951"/><path d="M-866.542,656.513l16.424-4.776,33.058,37.08-16.089,5.531Z" transform="translate(867.966 -518.342)" fill="#273238"/><path d="M-865.536,656.634l14.648-4.26,31.867,35.745-14.367,4.939Z" transform="translate(868.463 -518.027)" fill="#fff"/><path d="M-831.633,694.187s1.258-8.8-4.651-12.7-13.323-3.9-14.2-6.787c0,0,6.032-10.936-.754-11.439,0,0-5.154,8.8-6.914,9.931l2.639,19.106s1.383,5.153,8.924,7.29,13.3,8.634,13.3,8.634l6.313-7.126Z" transform="translate(872.106 -512.652)" fill="#ffba94"/><path d="M-702.456,637.757s2.848,46.656-24.218,69.449C-726.674,707.206-702.456,673.728-702.456,637.757Z" transform="translate(937 -525.242)" fill="#7ee8ff"/><path d="M-783.347,693.755s8.863-2.018,16.61,7.6C-766.737,701.355-776.717,694.705-783.347,693.755Z" transform="translate(909.028 -497.69)" fill="#c92b49"/><path d="M-783.562,694.367s5.834,1.771,6.513,10.6C-777.049,704.971-780.154,697.268-783.562,694.367Z" transform="translate(908.922 -497.301)" fill="#c92b49"/></g><g transform="translate(-899.861 726.32)"><path d="M-906.852,672.658l39.644-4.427a1.429,1.429,0,0,1,1.447.847l18.154,39.387a1.533,1.533,0,0,1-1.086,2.172l-53.413,8.315a1.46,1.46,0,0,1-1.643-1.344l-4.385-43.273A1.5,1.5,0,0,1-906.852,672.658Z" transform="translate(908.536 -667.25)" fill="#c43b3b"/><path d="M-907.116,672.007l39.642-4.427a1.431,1.431,0,0,1,1.449.847l18.154,39.387a1.533,1.533,0,0,1-1.086,2.172l-53.413,8.315a1.46,1.46,0,0,1-1.643-1.344l-4.385-43.273A1.5,1.5,0,0,1-907.116,672.007Z" transform="translate(908.406 -667.571)" fill="#7ee8ff"/><path d="M-906.331,673.57l37.236-4.386,16.613,37.209-49.409,7.563Z" transform="translate(909.429 -666.776)" fill="#fff"/><g transform="translate(12.337 2.569)"><path d="M-882.333,669.924l-1.143,2.14a.416.416,0,0,1-.318.229l-13.515,1.516a.4.4,0,0,1-.287-.081l-2.385-1.655a.446.446,0,0,1-.045-.651.391.391,0,0,1,.248-.126l17.046-2a.385.385,0,0,1,.344.137A.444.444,0,0,1-882.333,669.924Z" transform="translate(900.146 -669.291)" fill="#d8d8d8"/><path d="M-882.427,669.431l-1.083,2.028a.415.415,0,0,1-.318.229l-13.515,1.516a.4.4,0,0,1-.287-.081l-2.385-1.655a.294.294,0,0,1-.049-.046.391.391,0,0,1,.248-.126l17.046-2A.385.385,0,0,1-882.427,669.431Z" transform="translate(900.185 -669.291)" fill="#ebebeb"/></g></g><path d="M-904.9,675.807l19.669-2.482,3.628,11.84-21.77,2.864Z" transform="translate(10.273 61.589)" fill="#e5e5e5"/><path d="M-901.2,685.013l18.428-2.482,4.01,11.84-20.91,2.864Z" transform="translate(12.104 66.132)" fill="#e5e5e5"/><g transform="translate(-873.815 733.895)"><path d="M-890.967,674.489l14.9-1.846.255.573-14.9,1.941Z" transform="translate(890.967 -672.643)" fill="#e5e5e5"/><path d="M-890.69,675.213l14.99-1.846.255.573-14.991,1.942Z" transform="translate(891.104 -672.285)" fill="#e5e5e5"/><path d="M-890.371,676.023l15.086-1.846.255.573-15.086,1.942Z" transform="translate(891.262 -671.886)" fill="#e5e5e5"/></g><path d="M-888.922,678.782l6.111,18.046,16.614-2.578-8.02-17.473Z" transform="translate(18.162 63.293)" fill="#e5e5e5"/><path d="M-586.6,721.587c-18.713,37.978-57.468,59.967-192.943,55.9s-145.5-82.342-146.16-115.32,17.2-92.553,85.084-84.424c12.355,1.479,22.9,4.86,32.378,5.395A97.5,97.5,0,0,0-755.3,570.875c26.757-14.9,51.707-19.7,78.59-9.619a66.963,66.963,0,0,1,14.986,7.864c5.656-1.559,12.256-1.656,17.273,3.362,5.917,5.916,5.992,13.559,4.83,19.3,8.162,10.58,15.544,20.913,27.326,26.9C-571.4,639.467-567.885,683.608-586.6,721.587Z" transform="translate(0 3.648)" fill="none"/></g></svg>