<svg width="211" height="22" viewBox="0 0 211 22" fill="none" xmlns="http://www.w3.org/2000/svg">
<path d="M3.16116 6.944V21H0.0251564V1.12H2.60116L13.8572 15.484V1.148H17.0212V21H14.2772L3.16116 6.944ZM27.4319 21.28C26.2746 21.28 25.2386 21.084 24.3239 20.692C23.4092 20.2813 22.6159 19.7213 21.9439 19.012C21.2906 18.3027 20.7866 17.5 20.4319 16.604C20.0772 15.6893 19.8999 14.7187 19.8999 13.692C19.8999 12.6653 20.0772 11.6947 20.4319 10.78C20.7866 9.86533 21.2906 9.06267 21.9439 8.372C22.6159 7.66267 23.4092 7.112 24.3239 6.72C25.2572 6.30933 26.2932 6.104 27.4319 6.104C28.5706 6.104 29.5972 6.30933 30.5119 6.72C31.4452 7.112 32.2386 7.66267 32.8919 8.372C33.5639 9.06267 34.0772 9.86533 34.4319 10.78C34.7866 11.6947 34.9639 12.6653 34.9639 13.692C34.9639 14.7187 34.7866 15.6893 34.4319 16.604C34.0772 17.5 33.5639 18.3027 32.8919 19.012C32.2386 19.7213 31.4452 20.2813 30.5119 20.692C29.5972 21.084 28.5706 21.28 27.4319 21.28ZM23.0639 13.72C23.0639 14.6533 23.2599 15.4933 23.6519 16.24C24.0439 16.9867 24.5666 17.5747 25.2199 18.004C25.8732 18.4333 26.6106 18.648 27.4319 18.648C28.2346 18.648 28.9626 18.4333 29.6159 18.004C30.2879 17.556 30.8199 16.9587 31.2119 16.212C31.6039 15.4467 31.7999 14.6067 31.7999 13.692C31.7999 12.7587 31.6039 11.9187 31.2119 11.172C30.8199 10.4253 30.2879 9.83733 29.6159 9.408C28.9626 8.96 28.2346 8.736 27.4319 8.736C26.6106 8.736 25.8732 8.96 25.2199 9.408C24.5666 9.856 24.0439 10.4533 23.6519 11.2C23.2599 11.928 23.0639 12.768 23.0639 13.72ZM61.7216 21V6.832L55.8696 17.584H54.0216L48.1416 6.832V21H45.0056V1.12H48.3656L54.9456 13.272L61.5256 1.12H64.8856V21H61.7216ZM75.3668 21.28C74.2281 21.28 73.1921 21.084 72.2588 20.692C71.3441 20.2813 70.5508 19.7307 69.8788 19.04C69.2068 18.3307 68.6841 17.528 68.3108 16.632C67.9561 15.7173 67.7788 14.7467 67.7788 13.72C67.7788 12.3387 68.0961 11.0787 68.7308 9.94C69.3655 8.78267 70.2521 7.85867 71.3908 7.168C72.5295 6.45867 73.8641 6.104 75.3948 6.104C76.9255 6.104 78.2415 6.45867 79.3428 7.168C80.4628 7.85867 81.3308 8.77333 81.9468 9.912C82.5628 11.0507 82.8708 12.2733 82.8708 13.58C82.8708 13.804 82.8615 14.0187 82.8428 14.224C82.8241 14.4107 82.8055 14.5693 82.7868 14.7H71.0548C71.1108 15.5587 71.3441 16.3147 71.7548 16.968C72.1841 17.6027 72.7255 18.1067 73.3788 18.48C74.0321 18.8347 74.7321 19.012 75.4788 19.012C76.3001 19.012 77.0748 18.8067 77.8028 18.396C78.5495 17.9853 79.0535 17.444 79.3148 16.772L81.9468 17.528C81.6295 18.2373 81.1441 18.8813 80.4908 19.46C79.8561 20.02 79.1001 20.468 78.2228 20.804C77.3455 21.1213 76.3935 21.28 75.3668 21.28ZM70.9708 12.656H79.8188C79.7628 11.816 79.5201 11.0787 79.0908 10.444C78.6801 9.79067 78.1481 9.28667 77.4948 8.932C76.8601 8.55867 76.1508 8.372 75.3668 8.372C74.6015 8.372 73.8921 8.55867 73.2388 8.932C72.6041 9.28667 72.0815 9.79067 71.6708 10.444C71.2601 11.0787 71.0268 11.816 70.9708 12.656ZM84.3192 16.716C84.3192 15.7827 84.5805 14.9707 85.1032 14.28C85.6445 13.5707 86.3818 13.0293 87.3152 12.656C88.2485 12.264 89.3312 12.068 90.5632 12.068C91.2165 12.068 91.8792 12.1147 92.5512 12.208C93.2418 12.3013 93.8485 12.4507 94.3712 12.656V11.732C94.3712 10.7053 94.0632 9.90267 93.4472 9.324C92.8312 8.74533 91.9445 8.456 90.7872 8.456C89.9658 8.456 89.1912 8.60533 88.4632 8.904C87.7352 9.184 86.9605 9.58533 86.1392 10.108L85.1032 8.036C86.0738 7.38267 87.0445 6.89733 88.0152 6.58C89.0045 6.26267 90.0405 6.104 91.1232 6.104C93.0832 6.104 94.6232 6.62667 95.7432 7.672C96.8818 8.69867 97.4512 10.164 97.4512 12.068V17.528C97.4512 17.8827 97.5072 18.1347 97.6192 18.284C97.7498 18.4333 97.9645 18.5173 98.2632 18.536V21C97.9832 21.056 97.7312 21.0933 97.5072 21.112C97.2832 21.1307 97.0965 21.14 96.9472 21.14C96.2938 21.14 95.7992 20.9813 95.4632 20.664C95.1272 20.3467 94.9312 19.9733 94.8752 19.544L94.7912 18.704C94.1565 19.5253 93.3445 20.16 92.3552 20.608C91.3658 21.056 90.3672 21.28 89.3592 21.28C88.3885 21.28 87.5205 21.084 86.7552 20.692C85.9898 20.2813 85.3925 19.7307 84.9632 19.04C84.5338 18.3493 84.3192 17.5747 84.3192 16.716ZM93.6432 17.612C93.8672 17.3693 94.0445 17.1267 94.1752 16.884C94.3058 16.6413 94.3712 16.4267 94.3712 16.24V14.56C93.8485 14.3547 93.2978 14.2053 92.7192 14.112C92.1405 14 91.5712 13.944 91.0112 13.944C89.8912 13.944 88.9765 14.168 88.2672 14.616C87.5765 15.064 87.2312 15.68 87.2312 16.464C87.2312 16.8933 87.3432 17.304 87.5672 17.696C87.8098 18.088 88.1458 18.4053 88.5752 18.648C89.0232 18.8907 89.5738 19.012 90.2272 19.012C90.8992 19.012 91.5432 18.8813 92.1592 18.62C92.7752 18.3587 93.2698 18.0227 93.6432 17.612ZM101.216 0.559999H104.296V16.772C104.296 17.5187 104.408 17.9947 104.632 18.2C104.856 18.4053 105.136 18.508 105.472 18.508C105.845 18.508 106.191 18.4707 106.508 18.396C106.844 18.3213 107.133 18.228 107.376 18.116L107.824 20.552C107.376 20.7387 106.844 20.8973 106.228 21.028C105.612 21.1587 105.061 21.224 104.576 21.224C103.531 21.224 102.709 20.9347 102.112 20.356C101.515 19.7587 101.216 18.9373 101.216 17.892V0.559999ZM114.818 21.28C113.586 21.28 112.419 21.084 111.318 20.692C110.216 20.2813 109.274 19.6747 108.49 18.872L109.638 16.8C110.478 17.5467 111.318 18.088 112.158 18.424C113.016 18.76 113.866 18.928 114.706 18.928C115.564 18.928 116.264 18.7693 116.806 18.452C117.347 18.116 117.618 17.6307 117.618 16.996C117.618 16.5293 117.478 16.184 117.198 15.96C116.918 15.736 116.507 15.54 115.966 15.372C115.443 15.204 114.808 15.0173 114.062 14.812C113.016 14.4947 112.139 14.168 111.43 13.832C110.72 13.4773 110.188 13.048 109.834 12.544C109.479 12.04 109.302 11.396 109.302 10.612C109.302 9.66 109.544 8.848 110.03 8.176C110.515 7.504 111.187 6.99067 112.046 6.636C112.923 6.28133 113.931 6.104 115.07 6.104C116.134 6.104 117.114 6.272 118.01 6.608C118.924 6.92533 119.727 7.42933 120.418 8.12L119.102 10.164C118.448 9.56667 117.776 9.128 117.086 8.848C116.414 8.568 115.686 8.428 114.902 8.428C114.454 8.428 114.024 8.484 113.614 8.596C113.203 8.68933 112.858 8.876 112.578 9.156C112.316 9.41733 112.186 9.79067 112.186 10.276C112.186 10.668 112.298 10.9853 112.522 11.228C112.746 11.4707 113.082 11.676 113.53 11.844C113.978 12.012 114.528 12.1987 115.182 12.404C116.32 12.74 117.291 13.076 118.094 13.412C118.896 13.7293 119.512 14.1493 119.942 14.672C120.39 15.176 120.614 15.876 120.614 16.772C120.614 18.1907 120.082 19.3013 119.018 20.104C117.972 20.888 116.572 21.28 114.818 21.28ZM130.674 21V1.12H143.918V3.892H133.81V9.828H142.266V12.432H133.81V21H130.674ZM152.201 21.28C151.044 21.28 150.008 21.084 149.093 20.692C148.179 20.2813 147.385 19.7213 146.713 19.012C146.06 18.3027 145.556 17.5 145.201 16.604C144.847 15.6893 144.669 14.7187 144.669 13.692C144.669 12.6653 144.847 11.6947 145.201 10.78C145.556 9.86533 146.06 9.06267 146.713 8.372C147.385 7.66267 148.179 7.112 149.093 6.72C150.027 6.30933 151.063 6.104 152.201 6.104C153.34 6.104 154.367 6.30933 155.281 6.72C156.215 7.112 157.008 7.66267 157.661 8.372C158.333 9.06267 158.847 9.86533 159.201 10.78C159.556 11.6947 159.733 12.6653 159.733 13.692C159.733 14.7187 159.556 15.6893 159.201 16.604C158.847 17.5 158.333 18.3027 157.661 19.012C157.008 19.7213 156.215 20.2813 155.281 20.692C154.367 21.084 153.34 21.28 152.201 21.28ZM147.833 13.72C147.833 14.6533 148.029 15.4933 148.421 16.24C148.813 16.9867 149.336 17.5747 149.989 18.004C150.643 18.4333 151.38 18.648 152.201 18.648C153.004 18.648 153.732 18.4333 154.385 18.004C155.057 17.556 155.589 16.9587 155.981 16.212C156.373 15.4467 156.569 14.6067 156.569 13.692C156.569 12.7587 156.373 11.9187 155.981 11.172C155.589 10.4253 155.057 9.83733 154.385 9.408C153.732 8.96 153.004 8.736 152.201 8.736C151.38 8.736 150.643 8.96 149.989 9.408C149.336 9.856 148.813 10.4533 148.421 11.2C148.029 11.928 147.833 12.768 147.833 13.72ZM162.325 15.316V6.356H165.405V14.7C165.405 16.0067 165.639 16.996 166.105 17.668C166.591 18.3213 167.291 18.648 168.205 18.648C168.784 18.648 169.344 18.5267 169.885 18.284C170.445 18.0413 170.949 17.6867 171.397 17.22C171.864 16.7347 172.237 16.156 172.517 15.484V6.356H175.597V17.528C175.597 17.8827 175.663 18.1347 175.793 18.284C175.924 18.4333 176.139 18.5173 176.437 18.536V21C176.12 21.056 175.859 21.0933 175.653 21.112C175.448 21.1307 175.252 21.14 175.065 21.14C174.505 21.14 174.039 20.9907 173.665 20.692C173.292 20.3747 173.077 19.9733 173.021 19.488L172.965 18.032C172.312 19.096 171.463 19.908 170.417 20.468C169.372 21.0093 168.224 21.28 166.973 21.28C165.443 21.28 164.285 20.776 163.501 19.768C162.717 18.76 162.325 17.276 162.325 15.316ZM192.66 21H189.58V12.796C189.58 11.4333 189.356 10.4347 188.908 9.8C188.478 9.16533 187.834 8.848 186.976 8.848C186.378 8.848 185.781 8.99733 185.184 9.296C184.605 9.59467 184.082 10.0053 183.616 10.528C183.149 11.032 182.813 11.62 182.608 12.292V21H179.528V6.356H182.328V9.296C182.701 8.64267 183.186 8.08267 183.784 7.616C184.4 7.13067 185.09 6.75733 185.856 6.496C186.621 6.23467 187.433 6.104 188.292 6.104C189.169 6.104 189.888 6.26267 190.448 6.58C191.026 6.89733 191.474 7.336 191.792 7.896C192.128 8.43733 192.352 9.072 192.464 9.8C192.594 10.5093 192.66 11.2653 192.66 12.068V21ZM195.311 13.692C195.311 12.292 195.591 11.0227 196.151 9.884C196.729 8.72667 197.513 7.812 198.503 7.14C199.492 6.44933 200.631 6.104 201.919 6.104C203.039 6.104 204.047 6.39333 204.943 6.972C205.857 7.55067 206.567 8.26933 207.071 9.128V0.559999H210.151V17.528C210.151 17.8827 210.216 18.1347 210.347 18.284C210.477 18.4333 210.692 18.5173 210.991 18.536V21C210.412 21.0933 209.964 21.14 209.647 21.14C209.068 21.14 208.573 20.972 208.163 20.636C207.771 20.3 207.565 19.8987 207.547 19.432L207.519 18.34C206.959 19.2733 206.203 20.0013 205.251 20.524C204.299 21.028 203.309 21.28 202.283 21.28C201.275 21.28 200.341 21.084 199.483 20.692C198.643 20.3 197.905 19.7493 197.271 19.04C196.655 18.3307 196.169 17.5187 195.815 16.604C195.479 15.6893 195.311 14.7187 195.311 13.692ZM207.071 15.736V11.9C206.865 11.3027 206.529 10.7707 206.063 10.304C205.615 9.81867 205.101 9.436 204.523 9.156C203.963 8.876 203.403 8.736 202.843 8.736C202.189 8.736 201.592 8.876 201.051 9.156C200.528 9.436 200.071 9.80933 199.679 10.276C199.305 10.7427 199.016 11.2747 198.811 11.872C198.605 12.4693 198.503 13.0947 198.503 13.748C198.503 14.42 198.615 15.0547 198.839 15.652C199.063 16.2307 199.38 16.7533 199.791 17.22C200.22 17.668 200.705 18.0227 201.247 18.284C201.807 18.5267 202.413 18.648 203.067 18.648C203.477 18.648 203.888 18.5733 204.299 18.424C204.728 18.2747 205.129 18.0693 205.503 17.808C205.895 17.5467 206.221 17.2387 206.483 16.884C206.763 16.5293 206.959 16.1467 207.071 15.736Z" fill="black"/>
</svg>
