<svg width="291" height="65" viewBox="0 0 291 65" fill="none" xmlns="http://www.w3.org/2000/svg">
<path opacity="0.57" d="M9.62482 13V0.929999H14.6228C15.1442 0.929999 15.6202 1.03767 16.0508 1.253C16.4928 1.46833 16.8725 1.763 17.1898 2.137C17.5072 2.49967 17.7565 2.90767 17.9378 3.361C18.1192 3.803 18.2098 4.25633 18.2098 4.721C18.2098 5.37833 18.0625 6.00167 17.7678 6.591C17.4845 7.169 17.0822 7.63933 16.5608 8.002C16.0395 8.36467 15.4275 8.546 14.7248 8.546H10.8148V13H9.62482ZM10.8148 7.492H14.6738C15.1498 7.492 15.5635 7.36167 15.9148 7.101C16.2661 6.84033 16.5382 6.50033 16.7308 6.081C16.9235 5.66167 17.0198 5.20833 17.0198 4.721C17.0198 4.22233 16.9065 3.76333 16.6798 3.344C16.4532 2.92467 16.1528 2.596 15.7788 2.358C15.4162 2.10867 15.0138 1.984 14.5718 1.984H10.8148V7.492ZM20.013 0.59H21.169V10.994C21.169 11.436 21.2483 11.725 21.407 11.861C21.5657 11.997 21.7583 12.065 21.985 12.065C22.189 12.065 22.393 12.0423 22.597 11.997C22.801 11.9517 22.9767 11.9063 23.124 11.861L23.328 12.796C23.1127 12.8867 22.8463 12.9603 22.529 13.017C22.223 13.0737 21.9567 13.102 21.73 13.102C21.2087 13.102 20.7893 12.949 20.472 12.643C20.166 12.337 20.013 11.9177 20.013 11.385V0.59ZM28.4188 13.17C27.7842 13.17 27.1948 13.051 26.6508 12.813C26.1068 12.5637 25.6365 12.2293 25.2398 11.81C24.8432 11.3793 24.5315 10.8863 24.3048 10.331C24.0895 9.77567 23.9818 9.18067 23.9818 8.546C23.9818 7.71867 24.1688 6.95933 24.5428 6.268C24.9282 5.57667 25.4552 5.027 26.1238 4.619C26.7925 4.19967 27.5518 3.99 28.4018 3.99C29.2745 3.99 30.0338 4.19967 30.6798 4.619C31.3372 5.03833 31.8528 5.59367 32.2268 6.285C32.6008 6.965 32.7878 7.713 32.7878 8.529C32.7878 8.61967 32.7878 8.71033 32.7878 8.801C32.7878 8.88033 32.7822 8.94267 32.7708 8.988H25.1888C25.2455 9.62267 25.4212 10.1893 25.7158 10.688C26.0218 11.1753 26.4128 11.5663 26.8888 11.861C27.3762 12.1443 27.9032 12.286 28.4698 12.286C29.0478 12.286 29.5918 12.1387 30.1018 11.844C30.6232 11.5493 30.9858 11.164 31.1898 10.688L32.1928 10.96C32.0115 11.3793 31.7338 11.759 31.3598 12.099C30.9858 12.439 30.5438 12.7053 30.0338 12.898C29.5352 13.0793 28.9968 13.17 28.4188 13.17ZM25.1548 8.155H31.6998C31.6545 7.509 31.4788 6.94233 31.1728 6.455C30.8782 5.96767 30.4872 5.588 29.9998 5.316C29.5238 5.03267 28.9968 4.891 28.4188 4.891C27.8408 4.891 27.3138 5.03267 26.8378 5.316C26.3618 5.588 25.9708 5.97333 25.6648 6.472C25.3702 6.95933 25.2002 7.52033 25.1548 8.155ZM33.8574 10.45C33.8574 9.89467 34.0161 9.41867 34.3334 9.022C34.6507 8.614 35.0871 8.30233 35.6424 8.087C36.2091 7.86033 36.8607 7.747 37.5974 7.747C38.0281 7.747 38.4757 7.781 38.9404 7.849C39.4051 7.917 39.8187 8.019 40.1814 8.155V7.407C40.1814 6.659 39.9604 6.064 39.5184 5.622C39.0764 5.18 38.4644 4.959 37.6824 4.959C37.2064 4.959 36.7361 5.04967 36.2714 5.231C35.8181 5.401 35.3421 5.656 34.8434 5.996L34.4014 5.18C34.9794 4.78333 35.5461 4.48867 36.1014 4.296C36.6567 4.092 37.2234 3.99 37.8014 3.99C38.8894 3.99 39.7507 4.30167 40.3854 4.925C41.0201 5.54833 41.3374 6.40967 41.3374 7.509V11.606C41.3374 11.7647 41.3714 11.8837 41.4394 11.963C41.5074 12.031 41.6151 12.0707 41.7624 12.082V13C41.6377 13.0113 41.5301 13.0227 41.4394 13.034C41.3487 13.0453 41.2807 13.0453 41.2354 13.034C40.9521 13.0227 40.7367 12.932 40.5894 12.762C40.4421 12.592 40.3627 12.4107 40.3514 12.218L40.3344 11.572C39.9377 12.082 39.4221 12.4787 38.7874 12.762C38.1527 13.034 37.5067 13.17 36.8494 13.17C36.2827 13.17 35.7671 13.051 35.3024 12.813C34.8491 12.5637 34.4921 12.235 34.2314 11.827C33.9821 11.4077 33.8574 10.9487 33.8574 10.45ZM39.7904 11.13C39.9151 10.9713 40.0114 10.8183 40.0794 10.671C40.1474 10.5237 40.1814 10.3933 40.1814 10.28V8.988C39.7961 8.84067 39.3937 8.72733 38.9744 8.648C38.5664 8.56867 38.1527 8.529 37.7334 8.529C36.9061 8.529 36.2374 8.69333 35.7274 9.022C35.2174 9.35067 34.9624 9.79833 34.9624 10.365C34.9624 10.6937 35.0474 11.0053 35.2174 11.3C35.3874 11.5833 35.6367 11.8213 35.9654 12.014C36.2941 12.1953 36.6794 12.286 37.1214 12.286C37.6767 12.286 38.1924 12.1783 38.6684 11.963C39.1557 11.7477 39.5297 11.47 39.7904 11.13ZM46.7421 13.17C46.0167 13.17 45.3424 13.051 44.7191 12.813C44.0957 12.575 43.5574 12.2123 43.1041 11.725L43.5801 10.909C44.0787 11.3737 44.5774 11.7137 45.0761 11.929C45.5861 12.133 46.1244 12.235 46.6911 12.235C47.3824 12.235 47.9434 12.099 48.3741 11.827C48.8047 11.5437 49.0201 11.1413 49.0201 10.62C49.0201 10.2687 48.9124 10.0023 48.6971 9.821C48.4931 9.62833 48.1927 9.47533 47.7961 9.362C47.4107 9.23733 46.9461 9.107 46.4021 8.971C45.7901 8.801 45.2744 8.62533 44.8551 8.444C44.4471 8.25133 44.1354 8.01333 43.9201 7.73C43.7161 7.43533 43.6141 7.05567 43.6141 6.591C43.6141 6.013 43.7557 5.537 44.0391 5.163C44.3337 4.77767 44.7304 4.48867 45.2291 4.296C45.7391 4.092 46.3057 3.99 46.9291 3.99C47.6091 3.99 48.2097 4.09767 48.7311 4.313C49.2524 4.52833 49.6774 4.82867 50.0061 5.214L49.4451 5.996C49.1277 5.63333 48.7481 5.367 48.3061 5.197C47.8754 5.01567 47.3937 4.925 46.8611 4.925C46.4984 4.925 46.1527 4.976 45.8241 5.078C45.4954 5.16867 45.2234 5.32733 45.0081 5.554C44.8041 5.76933 44.7021 6.06967 44.7021 6.455C44.7021 6.77233 44.7814 7.02167 44.9401 7.203C45.0987 7.373 45.3367 7.52033 45.6541 7.645C45.9714 7.75833 46.3624 7.883 46.8271 8.019C47.4957 8.20033 48.0794 8.38733 48.5781 8.58C49.0767 8.76133 49.4621 8.99933 49.7341 9.294C50.0061 9.58867 50.1421 10.0023 50.1421 10.535C50.1421 11.3623 49.8304 12.0083 49.2071 12.473C48.5837 12.9377 47.7621 13.17 46.7421 13.17ZM55.8778 13.17C55.2432 13.17 54.6538 13.051 54.1098 12.813C53.5658 12.5637 53.0955 12.2293 52.6988 11.81C52.3022 11.3793 51.9905 10.8863 51.7638 10.331C51.5485 9.77567 51.4408 9.18067 51.4408 8.546C51.4408 7.71867 51.6278 6.95933 52.0018 6.268C52.3872 5.57667 52.9142 5.027 53.5828 4.619C54.2515 4.19967 55.0108 3.99 55.8608 3.99C56.7335 3.99 57.4928 4.19967 58.1388 4.619C58.7962 5.03833 59.3118 5.59367 59.6858 6.285C60.0598 6.965 60.2468 7.713 60.2468 8.529C60.2468 8.61967 60.2468 8.71033 60.2468 8.801C60.2468 8.88033 60.2412 8.94267 60.2298 8.988H52.6478C52.7045 9.62267 52.8802 10.1893 53.1748 10.688C53.4808 11.1753 53.8718 11.5663 54.3478 11.861C54.8352 12.1443 55.3622 12.286 55.9288 12.286C56.5068 12.286 57.0508 12.1387 57.5608 11.844C58.0822 11.5493 58.4448 11.164 58.6488 10.688L59.6518 10.96C59.4705 11.3793 59.1928 11.759 58.8188 12.099C58.4448 12.439 58.0028 12.7053 57.4928 12.898C56.9942 13.0793 56.4558 13.17 55.8778 13.17ZM52.6138 8.155H59.1588C59.1135 7.509 58.9378 6.94233 58.6318 6.455C58.3372 5.96767 57.9462 5.588 57.4588 5.316C56.9828 5.03267 56.4558 4.891 55.8778 4.891C55.2998 4.891 54.7728 5.03267 54.2968 5.316C53.8208 5.588 53.4298 5.97333 53.1238 6.472C52.8292 6.95933 52.6592 7.52033 52.6138 8.155ZM65.6494 10.45C65.6494 9.89467 65.808 9.41867 66.1254 9.022C66.4427 8.614 66.879 8.30233 67.4344 8.087C68.001 7.86033 68.6527 7.747 69.3894 7.747C69.82 7.747 70.2677 7.781 70.7324 7.849C71.197 7.917 71.6107 8.019 71.9734 8.155V7.407C71.9734 6.659 71.7524 6.064 71.3104 5.622C70.8684 5.18 70.2564 4.959 69.4744 4.959C68.9984 4.959 68.528 5.04967 68.0634 5.231C67.61 5.401 67.134 5.656 66.6354 5.996L66.1934 5.18C66.7714 4.78333 67.338 4.48867 67.8934 4.296C68.4487 4.092 69.0154 3.99 69.5934 3.99C70.6814 3.99 71.5427 4.30167 72.1774 4.925C72.812 5.54833 73.1294 6.40967 73.1294 7.509V11.606C73.1294 11.7647 73.1634 11.8837 73.2314 11.963C73.2994 12.031 73.407 12.0707 73.5544 12.082V13C73.4297 13.0113 73.322 13.0227 73.2314 13.034C73.1407 13.0453 73.0727 13.0453 73.0274 13.034C72.744 13.0227 72.5287 12.932 72.3814 12.762C72.234 12.592 72.1547 12.4107 72.1434 12.218L72.1264 11.572C71.7297 12.082 71.214 12.4787 70.5794 12.762C69.9447 13.034 69.2987 13.17 68.6414 13.17C68.0747 13.17 67.559 13.051 67.0944 12.813C66.641 12.5637 66.284 12.235 66.0234 11.827C65.774 11.4077 65.6494 10.9487 65.6494 10.45ZM71.5824 11.13C71.707 10.9713 71.8034 10.8183 71.8714 10.671C71.9394 10.5237 71.9734 10.3933 71.9734 10.28V8.988C71.588 8.84067 71.1857 8.72733 70.7664 8.648C70.3584 8.56867 69.9447 8.529 69.5254 8.529C68.698 8.529 68.0294 8.69333 67.5194 9.022C67.0094 9.35067 66.7544 9.79833 66.7544 10.365C66.7544 10.6937 66.8394 11.0053 67.0094 11.3C67.1794 11.5833 67.4287 11.8213 67.7574 12.014C68.086 12.1953 68.4714 12.286 68.9134 12.286C69.4687 12.286 69.9844 12.1783 70.4604 11.963C70.9477 11.7477 71.3217 11.47 71.5824 11.13ZM75.0321 8.597C75.0321 7.75833 75.2021 6.99333 75.5421 6.302C75.8934 5.59933 76.3751 5.03833 76.9871 4.619C77.5991 4.19967 78.2961 3.99 79.0781 3.99C79.8147 3.99 80.4721 4.18833 81.0501 4.585C81.6394 4.97033 82.0984 5.44067 82.4271 5.996V0.59H83.5831V11.606C83.5831 11.7647 83.6171 11.8837 83.6851 11.963C83.7531 12.031 83.8551 12.0707 83.9911 12.082V13C83.7644 13.034 83.5887 13.0453 83.4641 13.034C83.2261 13.0227 83.0164 12.9263 82.8351 12.745C82.6537 12.5637 82.5631 12.3653 82.5631 12.15V11.283C82.2117 11.861 81.7357 12.32 81.1351 12.66C80.5344 13 79.9111 13.17 79.2651 13.17C78.6531 13.17 78.0864 13.0453 77.5651 12.796C77.0551 12.5467 76.6074 12.2067 76.2221 11.776C75.8481 11.3453 75.5534 10.858 75.3381 10.314C75.1341 9.75867 75.0321 9.18633 75.0321 8.597ZM82.4271 9.957V7.22C82.2797 6.812 82.0417 6.44367 81.7131 6.115C81.3844 5.775 81.0104 5.50867 80.5911 5.316C80.1831 5.112 79.7751 5.01 79.3671 5.01C78.8911 5.01 78.4604 5.112 78.0751 5.316C77.6897 5.50867 77.3554 5.775 77.0721 6.115C76.8001 6.455 76.5904 6.84033 76.4431 7.271C76.2957 7.70167 76.2221 8.14367 76.2221 8.597C76.2221 9.073 76.3014 9.52633 76.4601 9.957C76.6301 10.3877 76.8681 10.773 77.1741 11.113C77.4801 11.4417 77.8314 11.6967 78.2281 11.878C78.6247 12.0593 79.0554 12.15 79.5201 12.15C79.8147 12.15 80.1207 12.0933 80.4381 11.98C80.7554 11.8667 81.0557 11.7137 81.3391 11.521C81.6337 11.317 81.8774 11.079 82.0701 10.807C82.2627 10.535 82.3817 10.2517 82.4271 9.957ZM85.6072 8.597C85.6072 7.75833 85.7772 6.99333 86.1172 6.302C86.4686 5.59933 86.9502 5.03833 87.5622 4.619C88.1742 4.19967 88.8712 3.99 89.6532 3.99C90.3899 3.99 91.0472 4.18833 91.6252 4.585C92.2146 4.97033 92.6736 5.44067 93.0022 5.996V0.59H94.1582V11.606C94.1582 11.7647 94.1922 11.8837 94.2602 11.963C94.3282 12.031 94.4302 12.0707 94.5662 12.082V13C94.3396 13.034 94.1639 13.0453 94.0392 13.034C93.8012 13.0227 93.5916 12.9263 93.4102 12.745C93.2289 12.5637 93.1382 12.3653 93.1382 12.15V11.283C92.7869 11.861 92.3109 12.32 91.7102 12.66C91.1096 13 90.4862 13.17 89.8402 13.17C89.2282 13.17 88.6616 13.0453 88.1402 12.796C87.6302 12.5467 87.1826 12.2067 86.7972 11.776C86.4232 11.3453 86.1286 10.858 85.9132 10.314C85.7092 9.75867 85.6072 9.18633 85.6072 8.597ZM93.0022 9.957V7.22C92.8549 6.812 92.6169 6.44367 92.2882 6.115C91.9596 5.775 91.5856 5.50867 91.1662 5.316C90.7582 5.112 90.3502 5.01 89.9422 5.01C89.4662 5.01 89.0356 5.112 88.6502 5.316C88.2649 5.50867 87.9306 5.775 87.6472 6.115C87.3752 6.455 87.1656 6.84033 87.0182 7.271C86.8709 7.70167 86.7972 8.14367 86.7972 8.597C86.7972 9.073 86.8766 9.52633 87.0352 9.957C87.2052 10.3877 87.4432 10.773 87.7492 11.113C88.0552 11.4417 88.4066 11.6967 88.8032 11.878C89.1999 12.0593 89.6306 12.15 90.0952 12.15C90.3899 12.15 90.6959 12.0933 91.0132 11.98C91.3306 11.8667 91.6309 11.7137 91.9142 11.521C92.2089 11.317 92.4526 11.079 92.6452 10.807C92.8379 10.535 92.9569 10.2517 93.0022 9.957ZM100.396 10.45C100.396 9.89467 100.555 9.41867 100.872 9.022C101.19 8.614 101.626 8.30233 102.181 8.087C102.748 7.86033 103.4 7.747 104.136 7.747C104.567 7.747 105.015 7.781 105.479 7.849C105.944 7.917 106.358 8.019 106.72 8.155V7.407C106.72 6.659 106.499 6.064 106.057 5.622C105.615 5.18 105.003 4.959 104.221 4.959C103.745 4.959 103.275 5.04967 102.81 5.231C102.357 5.401 101.881 5.656 101.382 5.996L100.94 5.18C101.518 4.78333 102.085 4.48867 102.64 4.296C103.196 4.092 103.762 3.99 104.34 3.99C105.428 3.99 106.29 4.30167 106.924 4.925C107.559 5.54833 107.876 6.40967 107.876 7.509V11.606C107.876 11.7647 107.91 11.8837 107.978 11.963C108.046 12.031 108.154 12.0707 108.301 12.082V13C108.177 13.0113 108.069 13.0227 107.978 13.034C107.888 13.0453 107.82 13.0453 107.774 13.034C107.491 13.0227 107.276 12.932 107.128 12.762C106.981 12.592 106.902 12.4107 106.89 12.218L106.873 11.572C106.477 12.082 105.961 12.4787 105.326 12.762C104.692 13.034 104.046 13.17 103.388 13.17C102.822 13.17 102.306 13.051 101.841 12.813C101.388 12.5637 101.031 12.235 100.77 11.827C100.521 11.4077 100.396 10.9487 100.396 10.45ZM106.329 11.13C106.454 10.9713 106.55 10.8183 106.618 10.671C106.686 10.5237 106.72 10.3933 106.72 10.28V8.988C106.335 8.84067 105.933 8.72733 105.513 8.648C105.105 8.56867 104.692 8.529 104.272 8.529C103.445 8.529 102.776 8.69333 102.266 9.022C101.756 9.35067 101.501 9.79833 101.501 10.365C101.501 10.6937 101.586 11.0053 101.756 11.3C101.926 11.5833 102.176 11.8213 102.504 12.014C102.833 12.1953 103.218 12.286 103.66 12.286C104.216 12.286 104.731 12.1783 105.207 11.963C105.695 11.7477 106.069 11.47 106.329 11.13ZM127.882 13H126.726V8.053C126.726 7.02167 126.562 6.26233 126.233 5.775C125.904 5.28767 125.417 5.044 124.771 5.044C124.102 5.044 123.502 5.282 122.969 5.758C122.448 6.234 122.079 6.846 121.864 7.594V13H120.708V8.053C120.708 7.01033 120.549 6.251 120.232 5.775C119.915 5.28767 119.427 5.044 118.77 5.044C118.113 5.044 117.518 5.27633 116.985 5.741C116.452 6.20567 116.078 6.81767 115.863 7.577V13H114.707V4.143H115.761V6.149C116.135 5.45767 116.611 4.925 117.189 4.551C117.778 4.177 118.43 3.99 119.144 3.99C119.881 3.99 120.476 4.19967 120.929 4.619C121.382 5.03833 121.66 5.588 121.762 6.268C122.17 5.52 122.657 4.95333 123.224 4.568C123.802 4.18267 124.454 3.99 125.179 3.99C125.678 3.99 126.097 4.08067 126.437 4.262C126.788 4.44333 127.066 4.704 127.27 5.044C127.485 5.37267 127.638 5.775 127.729 6.251C127.831 6.71567 127.882 7.237 127.882 7.815V13ZM134.154 13.17C133.52 13.17 132.93 13.051 132.386 12.813C131.842 12.5637 131.372 12.2293 130.975 11.81C130.579 11.3793 130.267 10.8863 130.04 10.331C129.825 9.77567 129.717 9.18067 129.717 8.546C129.717 7.71867 129.904 6.95933 130.278 6.268C130.664 5.57667 131.191 5.027 131.859 4.619C132.528 4.19967 133.287 3.99 134.137 3.99C135.01 3.99 135.769 4.19967 136.415 4.619C137.073 5.03833 137.588 5.59367 137.962 6.285C138.336 6.965 138.523 7.713 138.523 8.529C138.523 8.61967 138.523 8.71033 138.523 8.801C138.523 8.88033 138.518 8.94267 138.506 8.988H130.924C130.981 9.62267 131.157 10.1893 131.451 10.688C131.757 11.1753 132.148 11.5663 132.624 11.861C133.112 12.1443 133.639 12.286 134.205 12.286C134.783 12.286 135.327 12.1387 135.837 11.844C136.359 11.5493 136.721 11.164 136.925 10.688L137.928 10.96C137.747 11.3793 137.469 11.759 137.095 12.099C136.721 12.439 136.279 12.7053 135.769 12.898C135.271 13.0793 134.732 13.17 134.154 13.17ZM130.89 8.155H137.435C137.39 7.509 137.214 6.94233 136.908 6.455C136.614 5.96767 136.223 5.588 135.735 5.316C135.259 5.03267 134.732 4.891 134.154 4.891C133.576 4.891 133.049 5.03267 132.573 5.316C132.097 5.588 131.706 5.97333 131.4 6.472C131.106 6.95933 130.936 7.52033 130.89 8.155ZM139.593 10.45C139.593 9.89467 139.751 9.41867 140.069 9.022C140.386 8.614 140.822 8.30233 141.378 8.087C141.944 7.86033 142.596 7.747 143.333 7.747C143.763 7.747 144.211 7.781 144.676 7.849C145.14 7.917 145.554 8.019 145.917 8.155V7.407C145.917 6.659 145.696 6.064 145.254 5.622C144.812 5.18 144.2 4.959 143.418 4.959C142.942 4.959 142.471 5.04967 142.007 5.231C141.553 5.401 141.077 5.656 140.579 5.996L140.137 5.18C140.715 4.78333 141.281 4.48867 141.837 4.296C142.392 4.092 142.959 3.99 143.537 3.99C144.625 3.99 145.486 4.30167 146.121 4.925C146.755 5.54833 147.073 6.40967 147.073 7.509V11.606C147.073 11.7647 147.107 11.8837 147.175 11.963C147.243 12.031 147.35 12.0707 147.498 12.082V13C147.373 13.0113 147.265 13.0227 147.175 13.034C147.084 13.0453 147.016 13.0453 146.971 13.034C146.687 13.0227 146.472 12.932 146.325 12.762C146.177 12.592 146.098 12.4107 146.087 12.218L146.07 11.572C145.673 12.082 145.157 12.4787 144.523 12.762C143.888 13.034 143.242 13.17 142.585 13.17C142.018 13.17 141.502 13.051 141.038 12.813C140.584 12.5637 140.227 12.235 139.967 11.827C139.717 11.4077 139.593 10.9487 139.593 10.45ZM145.526 11.13C145.65 10.9713 145.747 10.8183 145.815 10.671C145.883 10.5237 145.917 10.3933 145.917 10.28V8.988C145.531 8.84067 145.129 8.72733 144.71 8.648C144.302 8.56867 143.888 8.529 143.469 8.529C142.641 8.529 141.973 8.69333 141.463 9.022C140.953 9.35067 140.698 9.79833 140.698 10.365C140.698 10.6937 140.783 11.0053 140.953 11.3C141.123 11.5833 141.372 11.8213 141.701 12.014C142.029 12.1953 142.415 12.286 142.857 12.286C143.412 12.286 143.928 12.1783 144.404 11.963C144.891 11.7477 145.265 11.47 145.526 11.13ZM149.621 0.59H150.777V10.994C150.777 11.436 150.857 11.725 151.015 11.861C151.174 11.997 151.367 12.065 151.593 12.065C151.797 12.065 152.001 12.0423 152.205 11.997C152.409 11.9517 152.585 11.9063 152.732 11.861L152.936 12.796C152.721 12.8867 152.455 12.9603 152.137 13.017C151.831 13.0737 151.565 13.102 151.338 13.102C150.817 13.102 150.398 12.949 150.08 12.643C149.774 12.337 149.621 11.9177 149.621 11.385V0.59ZM162.356 13.17C161.664 13.17 161.024 12.9943 160.435 12.643C159.845 12.2803 159.386 11.827 159.058 11.283V13H158.021V0.59H159.177V5.996C159.573 5.39533 160.049 4.91367 160.605 4.551C161.16 4.177 161.806 3.99 162.543 3.99C163.166 3.99 163.721 4.12033 164.209 4.381C164.707 4.64167 165.132 4.993 165.484 5.435C165.835 5.86567 166.101 6.35867 166.283 6.914C166.464 7.458 166.555 8.019 166.555 8.597C166.555 9.22033 166.447 9.804 166.232 10.348C166.028 10.892 165.733 11.3793 165.348 11.81C164.962 12.2293 164.515 12.5637 164.005 12.813C163.506 13.051 162.956 13.17 162.356 13.17ZM162.084 12.15C162.56 12.15 163.002 12.0537 163.41 11.861C163.818 11.6683 164.169 11.402 164.464 11.062C164.758 10.722 164.985 10.3423 165.144 9.923C165.302 9.49233 165.382 9.05033 165.382 8.597C165.382 7.97367 165.246 7.39 164.974 6.846C164.713 6.29067 164.345 5.84867 163.869 5.52C163.404 5.18 162.854 5.01 162.22 5.01C161.766 5.01 161.341 5.112 160.945 5.316C160.559 5.52 160.214 5.792 159.908 6.132C159.613 6.46067 159.369 6.82333 159.177 7.22V9.974C159.222 10.28 159.341 10.569 159.534 10.841C159.726 11.1017 159.964 11.3283 160.248 11.521C160.542 11.7137 160.848 11.8667 161.166 11.98C161.483 12.0933 161.789 12.15 162.084 12.15ZM168.724 15.72C168.883 15.7313 169.036 15.737 169.183 15.737C169.33 15.7483 169.438 15.7427 169.506 15.72C169.642 15.6973 169.772 15.618 169.897 15.482C170.022 15.346 170.169 15.0853 170.339 14.7C170.509 14.3147 170.747 13.748 171.053 13L167.194 4.143H168.418L171.665 11.81L174.657 4.143H175.813L171.223 15.567C171.144 15.7823 171.025 15.9807 170.866 16.162C170.707 16.3547 170.509 16.502 170.271 16.604C170.044 16.7173 169.761 16.7797 169.421 16.791C169.319 16.8023 169.211 16.8023 169.098 16.791C168.996 16.791 168.871 16.7797 168.724 16.757V15.72ZM184.203 13.17C183.478 13.17 182.803 13.051 182.18 12.813C181.557 12.575 181.018 12.2123 180.565 11.725L181.041 10.909C181.54 11.3737 182.038 11.7137 182.537 11.929C183.047 12.133 183.585 12.235 184.152 12.235C184.843 12.235 185.404 12.099 185.835 11.827C186.266 11.5437 186.481 11.1413 186.481 10.62C186.481 10.2687 186.373 10.0023 186.158 9.821C185.954 9.62833 185.654 9.47533 185.257 9.362C184.872 9.23733 184.407 9.107 183.863 8.971C183.251 8.801 182.735 8.62533 182.316 8.444C181.908 8.25133 181.596 8.01333 181.381 7.73C181.177 7.43533 181.075 7.05567 181.075 6.591C181.075 6.013 181.217 5.537 181.5 5.163C181.795 4.77767 182.191 4.48867 182.69 4.296C183.2 4.092 183.767 3.99 184.39 3.99C185.07 3.99 185.671 4.09767 186.192 4.313C186.713 4.52833 187.138 4.82867 187.467 5.214L186.906 5.996C186.589 5.63333 186.209 5.367 185.767 5.197C185.336 5.01567 184.855 4.925 184.322 4.925C183.959 4.925 183.614 4.976 183.285 5.078C182.956 5.16867 182.684 5.32733 182.469 5.554C182.265 5.76933 182.163 6.06967 182.163 6.455C182.163 6.77233 182.242 7.02167 182.401 7.203C182.56 7.373 182.798 7.52033 183.115 7.645C183.432 7.75833 183.823 7.883 184.288 8.019C184.957 8.20033 185.54 8.38733 186.039 8.58C186.538 8.76133 186.923 8.99933 187.195 9.294C187.467 9.58867 187.603 10.0023 187.603 10.535C187.603 11.3623 187.291 12.0083 186.668 12.473C186.045 12.9377 185.223 13.17 184.203 13.17ZM193.339 13.17C192.704 13.17 192.115 13.051 191.571 12.813C191.027 12.5637 190.556 12.2293 190.16 11.81C189.763 11.3793 189.451 10.8863 189.225 10.331C189.009 9.77567 188.902 9.18067 188.902 8.546C188.902 7.71867 189.089 6.95933 189.463 6.268C189.848 5.57667 190.375 5.027 191.044 4.619C191.712 4.19967 192.472 3.99 193.322 3.99C194.194 3.99 194.954 4.19967 195.6 4.619C196.257 5.03833 196.773 5.59367 197.147 6.285C197.521 6.965 197.708 7.713 197.708 8.529C197.708 8.61967 197.708 8.71033 197.708 8.801C197.708 8.88033 197.702 8.94267 197.691 8.988H190.109C190.165 9.62267 190.341 10.1893 190.636 10.688C190.942 11.1753 191.333 11.5663 191.809 11.861C192.296 12.1443 192.823 12.286 193.39 12.286C193.968 12.286 194.512 12.1387 195.022 11.844C195.543 11.5493 195.906 11.164 196.11 10.688L197.113 10.96C196.931 11.3793 196.654 11.759 196.28 12.099C195.906 12.439 195.464 12.7053 194.954 12.898C194.455 13.0793 193.917 13.17 193.339 13.17ZM190.075 8.155H196.62C196.574 7.509 196.399 6.94233 196.093 6.455C195.798 5.96767 195.407 5.588 194.92 5.316C194.444 5.03267 193.917 4.891 193.339 4.891C192.761 4.891 192.234 5.03267 191.758 5.316C191.282 5.588 190.891 5.97333 190.585 6.472C190.29 6.95933 190.12 7.52033 190.075 8.155ZM199.542 0.59H200.698V10.994C200.698 11.436 200.778 11.725 200.936 11.861C201.095 11.997 201.288 12.065 201.514 12.065C201.718 12.065 201.922 12.0423 202.126 11.997C202.33 11.9517 202.506 11.9063 202.653 11.861L202.857 12.796C202.642 12.8867 202.376 12.9603 202.058 13.017C201.752 13.0737 201.486 13.102 201.259 13.102C200.738 13.102 200.319 12.949 200.001 12.643C199.695 12.337 199.542 11.9177 199.542 11.385V0.59ZM207.948 13.17C207.313 13.17 206.724 13.051 206.18 12.813C205.636 12.5637 205.166 12.2293 204.769 11.81C204.372 11.3793 204.061 10.8863 203.834 10.331C203.619 9.77567 203.511 9.18067 203.511 8.546C203.511 7.71867 203.698 6.95933 204.072 6.268C204.457 5.57667 204.984 5.027 205.653 4.619C206.322 4.19967 207.081 3.99 207.931 3.99C208.804 3.99 209.563 4.19967 210.209 4.619C210.866 5.03833 211.382 5.59367 211.756 6.285C212.13 6.965 212.317 7.713 212.317 8.529C212.317 8.61967 212.317 8.71033 212.317 8.801C212.317 8.88033 212.311 8.94267 212.3 8.988H204.718C204.775 9.62267 204.95 10.1893 205.245 10.688C205.551 11.1753 205.942 11.5663 206.418 11.861C206.905 12.1443 207.432 12.286 207.999 12.286C208.577 12.286 209.121 12.1387 209.631 11.844C210.152 11.5493 210.515 11.164 210.719 10.688L211.722 10.96C211.541 11.3793 211.263 11.759 210.889 12.099C210.515 12.439 210.073 12.7053 209.563 12.898C209.064 13.0793 208.526 13.17 207.948 13.17ZM204.684 8.155H211.229C211.184 7.509 211.008 6.94233 210.702 6.455C210.407 5.96767 210.016 5.588 209.529 5.316C209.053 5.03267 208.526 4.891 207.948 4.891C207.37 4.891 206.843 5.03267 206.367 5.316C205.891 5.588 205.5 5.97333 205.194 6.472C204.899 6.95933 204.729 7.52033 204.684 8.155ZM217.943 13.17C217.297 13.17 216.702 13.051 216.158 12.813C215.625 12.5637 215.155 12.2237 214.747 11.793C214.35 11.3623 214.038 10.8693 213.812 10.314C213.596 9.75867 213.489 9.16933 213.489 8.546C213.489 7.70733 213.676 6.94233 214.05 6.251C214.424 5.55967 214.945 5.01 215.614 4.602C216.282 4.194 217.053 3.99 217.926 3.99C218.753 3.99 219.484 4.18267 220.119 4.568C220.753 4.942 221.224 5.452 221.53 6.098L220.408 6.455C220.158 6.00167 219.807 5.65033 219.354 5.401C218.912 5.14033 218.419 5.01 217.875 5.01C217.285 5.01 216.747 5.163 216.26 5.469C215.772 5.775 215.381 6.19433 215.087 6.727C214.803 7.25967 214.662 7.866 214.662 8.546C214.662 9.21467 214.809 9.821 215.104 10.365C215.398 10.909 215.789 11.3453 216.277 11.674C216.764 11.9913 217.302 12.15 217.892 12.15C218.277 12.15 218.645 12.082 218.997 11.946C219.359 11.81 219.671 11.6287 219.932 11.402C220.204 11.164 220.385 10.909 220.476 10.637L221.615 10.977C221.456 11.3963 221.19 11.776 220.816 12.116C220.453 12.4447 220.022 12.7053 219.524 12.898C219.036 13.0793 218.509 13.17 217.943 13.17ZM227.681 12.575C227.59 12.609 227.448 12.6713 227.256 12.762C227.063 12.8527 226.831 12.932 226.559 13C226.287 13.068 225.992 13.102 225.675 13.102C225.346 13.102 225.034 13.0397 224.74 12.915C224.456 12.7903 224.23 12.6033 224.06 12.354C223.89 12.0933 223.805 11.776 223.805 11.402V5.061H222.581V4.143H223.805V1.151H224.961V4.143H227.001V5.061H224.961V11.079C224.983 11.3963 225.097 11.6343 225.301 11.793C225.516 11.9517 225.76 12.031 226.032 12.031C226.349 12.031 226.638 11.98 226.899 11.878C227.159 11.7647 227.318 11.6853 227.375 11.64L227.681 12.575ZM229.125 13V4.143H230.281V13H229.125ZM229.125 2.29V0.59H230.281V2.29H229.125ZM240.273 13H239.117V8.053C239.117 7.01033 238.964 6.251 238.658 5.775C238.352 5.28767 237.871 5.044 237.213 5.044C236.76 5.044 236.312 5.15733 235.87 5.384C235.428 5.59933 235.037 5.89967 234.697 6.285C234.369 6.659 234.131 7.08967 233.983 7.577V13H232.827V4.143H233.881V6.149C234.119 5.71833 234.431 5.34433 234.816 5.027C235.202 4.69833 235.638 4.44333 236.125 4.262C236.613 4.08067 237.117 3.99 237.638 3.99C238.126 3.99 238.539 4.08067 238.879 4.262C239.219 4.44333 239.491 4.704 239.695 5.044C239.899 5.37267 240.047 5.775 240.137 6.251C240.228 6.71567 240.273 7.237 240.273 7.815V13ZM246.291 13.119C245.691 13.119 245.135 12.9943 244.625 12.745C244.115 12.4957 243.673 12.1613 243.299 11.742C242.937 11.3113 242.653 10.824 242.449 10.28C242.245 9.736 242.143 9.175 242.143 8.597C242.143 7.97367 242.24 7.39 242.432 6.846C242.636 6.29067 242.92 5.79767 243.282 5.367C243.656 4.93633 244.093 4.602 244.591 4.364C245.09 4.11467 245.645 3.99 246.257 3.99C247.017 3.99 247.674 4.18267 248.229 4.568C248.796 4.95333 249.272 5.42933 249.657 5.996V4.143H250.694V13.034C250.694 13.85 250.496 14.5357 250.099 15.091C249.714 15.6577 249.187 16.0827 248.518 16.366C247.861 16.6493 247.141 16.791 246.359 16.791C245.351 16.791 244.535 16.6097 243.911 16.247C243.288 15.8843 242.778 15.397 242.381 14.785L243.095 14.224C243.447 14.7793 243.911 15.193 244.489 15.465C245.079 15.737 245.702 15.873 246.359 15.873C246.937 15.873 247.464 15.7653 247.94 15.55C248.428 15.346 248.813 15.0343 249.096 14.615C249.391 14.1957 249.538 13.6687 249.538 13.034V11.283C249.198 11.8383 248.734 12.286 248.144 12.626C247.555 12.9547 246.937 13.119 246.291 13.119ZM246.614 12.15C246.966 12.15 247.3 12.0877 247.617 11.963C247.946 11.8383 248.246 11.674 248.518 11.47C248.79 11.2547 249.017 11.0167 249.198 10.756C249.38 10.4953 249.493 10.229 249.538 9.957V7.22C249.368 6.78933 249.125 6.40967 248.807 6.081C248.49 5.741 248.127 5.48033 247.719 5.299C247.323 5.10633 246.909 5.01 246.478 5.01C245.98 5.01 245.532 5.11767 245.135 5.333C244.75 5.537 244.421 5.81467 244.149 6.166C243.889 6.506 243.685 6.89133 243.537 7.322C243.39 7.75267 243.316 8.18333 243.316 8.614C243.316 9.09 243.401 9.54333 243.571 9.974C243.741 10.3933 243.974 10.773 244.268 11.113C244.574 11.4417 244.926 11.6967 245.322 11.878C245.73 12.0593 246.161 12.15 246.614 12.15ZM261.83 12.575C261.74 12.609 261.598 12.6713 261.405 12.762C261.213 12.8527 260.98 12.932 260.708 13C260.436 13.068 260.142 13.102 259.824 13.102C259.496 13.102 259.184 13.0397 258.889 12.915C258.606 12.7903 258.379 12.6033 258.209 12.354C258.039 12.0933 257.954 11.776 257.954 11.402V5.061H256.73V4.143H257.954V1.151H259.11V4.143H261.15V5.061H259.11V11.079C259.133 11.3963 259.246 11.6343 259.45 11.793C259.666 11.9517 259.909 12.031 260.181 12.031C260.499 12.031 260.788 11.98 261.048 11.878C261.309 11.7647 261.468 11.6853 261.524 11.64L261.83 12.575ZM270.721 13H269.565V8.053C269.565 7.05567 269.389 6.30767 269.038 5.809C268.686 5.299 268.182 5.044 267.525 5.044C267.094 5.044 266.663 5.15733 266.233 5.384C265.813 5.59933 265.439 5.89967 265.111 6.285C264.793 6.659 264.567 7.08967 264.431 7.577V13H263.275V0.59H264.431V6.149C264.782 5.49167 265.269 4.97033 265.893 4.585C266.527 4.18833 267.202 3.99 267.916 3.99C268.426 3.99 268.856 4.08067 269.208 4.262C269.57 4.44333 269.859 4.70967 270.075 5.061C270.301 5.401 270.466 5.80333 270.568 6.268C270.67 6.72133 270.721 7.237 270.721 7.815V13ZM277.011 13.17C276.376 13.17 275.787 13.051 275.243 12.813C274.699 12.5637 274.228 12.2293 273.832 11.81C273.435 11.3793 273.123 10.8863 272.897 10.331C272.681 9.77567 272.574 9.18067 272.574 8.546C272.574 7.71867 272.761 6.95933 273.135 6.268C273.52 5.57667 274.047 5.027 274.716 4.619C275.384 4.19967 276.144 3.99 276.994 3.99C277.866 3.99 278.626 4.19967 279.272 4.619C279.929 5.03833 280.445 5.59367 280.819 6.285C281.193 6.965 281.38 7.713 281.38 8.529C281.38 8.61967 281.38 8.71033 281.38 8.801C281.38 8.88033 281.374 8.94267 281.363 8.988H273.781C273.837 9.62267 274.013 10.1893 274.308 10.688C274.614 11.1753 275.005 11.5663 275.481 11.861C275.968 12.1443 276.495 12.286 277.062 12.286C277.64 12.286 278.184 12.1387 278.694 11.844C279.215 11.5493 279.578 11.164 279.782 10.688L280.785 10.96C280.603 11.3793 280.326 11.759 279.952 12.099C279.578 12.439 279.136 12.7053 278.626 12.898C278.127 13.0793 277.589 13.17 277.011 13.17ZM273.747 8.155H280.292C280.246 7.509 280.071 6.94233 279.765 6.455C279.47 5.96767 279.079 5.588 278.592 5.316C278.116 5.03267 277.589 4.891 277.011 4.891C276.433 4.891 275.906 5.03267 275.43 5.316C274.954 5.588 274.563 5.97333 274.257 6.472C273.962 6.95933 273.792 7.52033 273.747 8.155ZM4.2655 37.119C3.66483 37.119 3.1095 36.9943 2.5995 36.745C2.0895 36.4957 1.6475 36.1613 1.2735 35.742C0.910833 35.3113 0.6275 34.824 0.4235 34.28C0.2195 33.736 0.1175 33.175 0.1175 32.597C0.1175 31.9737 0.213833 31.39 0.4065 30.846C0.6105 30.2907 0.893833 29.7977 1.2565 29.367C1.6305 28.9363 2.06683 28.602 2.5655 28.364C3.06417 28.1147 3.6195 27.99 4.2315 27.99C4.99083 27.99 5.64817 28.1827 6.2035 28.568C6.77017 28.9533 7.24617 29.4293 7.6315 29.996V28.143H8.6685V37.034C8.6685 37.85 8.47017 38.5357 8.0735 39.091C7.68817 39.6577 7.16117 40.0827 6.4925 40.366C5.83517 40.6493 5.1155 40.791 4.3335 40.791C3.32483 40.791 2.50883 40.6097 1.8855 40.247C1.26217 39.8843 0.752167 39.397 0.3555 38.785L1.0695 38.224C1.42083 38.7793 1.8855 39.193 2.4635 39.465C3.05283 39.737 3.67617 39.873 4.3335 39.873C4.9115 39.873 5.4385 39.7653 5.9145 39.55C6.40183 39.346 6.78717 39.0343 7.0705 38.615C7.36517 38.1957 7.5125 37.6687 7.5125 37.034V35.283C7.1725 35.8383 6.70783 36.286 6.1185 36.626C5.52917 36.9547 4.9115 37.119 4.2655 37.119ZM4.5885 36.15C4.93983 36.15 5.27417 36.0877 5.5915 35.963C5.92017 35.8383 6.2205 35.674 6.4925 35.47C6.7645 35.2547 6.99117 35.0167 7.1725 34.756C7.35383 34.4953 7.46717 34.229 7.5125 33.957V31.22C7.3425 30.7893 7.09883 30.4097 6.7815 30.081C6.46417 29.741 6.1015 29.4803 5.6935 29.299C5.29683 29.1063 4.88317 29.01 4.4525 29.01C3.95383 29.01 3.50617 29.1177 3.1095 29.333C2.72417 29.537 2.3955 29.8147 2.1235 30.166C1.86283 30.506 1.65883 30.8913 1.5115 31.322C1.36417 31.7527 1.2905 32.1833 1.2905 32.614C1.2905 33.09 1.3755 33.5433 1.5455 33.974C1.7155 34.3933 1.94783 34.773 2.2425 35.113C2.5485 35.4417 2.89983 35.6967 3.2965 35.878C3.7045 36.0593 4.13517 36.15 4.5885 36.15ZM15.6413 29.163C14.8706 29.1857 14.1906 29.401 13.6013 29.809C13.0233 30.217 12.6153 30.778 12.3773 31.492V37H11.2213V28.143H12.3093V30.268C12.6153 29.6447 13.0176 29.1403 13.5163 28.755C14.0263 28.3697 14.5646 28.1543 15.1313 28.109C15.2446 28.0977 15.341 28.092 15.4203 28.092C15.511 28.092 15.5846 28.0977 15.6413 28.109V29.163ZM20.724 37.17C20.0894 37.17 19.5 37.051 18.956 36.813C18.412 36.5637 17.9417 36.2293 17.545 35.81C17.1484 35.3793 16.8367 34.8863 16.61 34.331C16.3947 33.7757 16.287 33.1807 16.287 32.546C16.287 31.7187 16.474 30.9593 16.848 30.268C17.2334 29.5767 17.7604 29.027 18.429 28.619C19.0977 28.1997 19.857 27.99 20.707 27.99C21.5797 27.99 22.339 28.1997 22.985 28.619C23.6424 29.0383 24.158 29.5937 24.532 30.285C24.906 30.965 25.093 31.713 25.093 32.529C25.093 32.6197 25.093 32.7103 25.093 32.801C25.093 32.8803 25.0874 32.9427 25.076 32.988H17.494C17.5507 33.6227 17.7264 34.1893 18.021 34.688C18.327 35.1753 18.718 35.5663 19.194 35.861C19.6814 36.1443 20.2084 36.286 20.775 36.286C21.353 36.286 21.897 36.1387 22.407 35.844C22.9284 35.5493 23.291 35.164 23.495 34.688L24.498 34.96C24.3167 35.3793 24.039 35.759 23.665 36.099C23.291 36.439 22.849 36.7053 22.339 36.898C21.8404 37.0793 21.302 37.17 20.724 37.17ZM17.46 32.155H24.005C23.9597 31.509 23.784 30.9423 23.478 30.455C23.1834 29.9677 22.7924 29.588 22.305 29.316C21.829 29.0327 21.302 28.891 20.724 28.891C20.146 28.891 19.619 29.0327 19.143 29.316C18.667 29.588 18.276 29.9733 17.97 30.472C17.6754 30.9593 17.5054 31.5203 17.46 32.155ZM30.7016 37.17C30.0669 37.17 29.4776 37.051 28.9336 36.813C28.3896 36.5637 27.9192 36.2293 27.5226 35.81C27.1259 35.3793 26.8142 34.8863 26.5876 34.331C26.3722 33.7757 26.2646 33.1807 26.2646 32.546C26.2646 31.7187 26.4516 30.9593 26.8256 30.268C27.2109 29.5767 27.7379 29.027 28.4066 28.619C29.0752 28.1997 29.8346 27.99 30.6846 27.99C31.5572 27.99 32.3166 28.1997 32.9626 28.619C33.6199 29.0383 34.1356 29.5937 34.5096 30.285C34.8836 30.965 35.0706 31.713 35.0706 32.529C35.0706 32.6197 35.0706 32.7103 35.0706 32.801C35.0706 32.8803 35.0649 32.9427 35.0536 32.988H27.4716C27.5282 33.6227 27.7039 34.1893 27.9986 34.688C28.3046 35.1753 28.6956 35.5663 29.1716 35.861C29.6589 36.1443 30.1859 36.286 30.7526 36.286C31.3306 36.286 31.8746 36.1387 32.3846 35.844C32.9059 35.5493 33.2686 35.164 33.4726 34.688L34.4756 34.96C34.2942 35.3793 34.0166 35.759 33.6426 36.099C33.2686 36.439 32.8266 36.7053 32.3166 36.898C31.8179 37.0793 31.2796 37.17 30.7016 37.17ZM27.4376 32.155H33.9826C33.9372 31.509 33.7616 30.9423 33.4556 30.455C33.1609 29.9677 32.7699 29.588 32.2826 29.316C31.8066 29.0327 31.2796 28.891 30.7016 28.891C30.1236 28.891 29.5966 29.0327 29.1206 29.316C28.6446 29.588 28.2536 29.9733 27.9476 30.472C27.6529 30.9593 27.4829 31.5203 27.4376 32.155ZM44.3001 37H43.1441V32.053C43.1441 31.0103 42.9911 30.251 42.6851 29.775C42.3791 29.2877 41.8974 29.044 41.2401 29.044C40.7868 29.044 40.3391 29.1573 39.8971 29.384C39.4551 29.5993 39.0641 29.8997 38.7241 30.285C38.3954 30.659 38.1574 31.0897 38.0101 31.577V37H36.8541V28.143H37.9081V30.149C38.1461 29.7183 38.4578 29.3443 38.8431 29.027C39.2284 28.6983 39.6648 28.4433 40.1521 28.262C40.6394 28.0807 41.1438 27.99 41.6651 27.99C42.1524 27.99 42.5661 28.0807 42.9061 28.262C43.2461 28.4433 43.5181 28.704 43.7221 29.044C43.9261 29.3727 44.0734 29.775 44.1641 30.251C44.2548 30.7157 44.3001 31.237 44.3001 31.815V37ZM51.0982 37V28.143H52.2542V37H51.0982ZM51.0982 26.29V24.59H52.2542V26.29H51.0982ZM58.6424 37.17C57.9964 37.17 57.4014 37.051 56.8574 36.813C56.3247 36.5637 55.8544 36.2237 55.4464 35.793C55.0497 35.3623 54.7381 34.8693 54.5114 34.314C54.2961 33.7587 54.1884 33.1693 54.1884 32.546C54.1884 31.7073 54.3754 30.9423 54.7494 30.251C55.1234 29.5597 55.6447 29.01 56.3134 28.602C56.9821 28.194 57.7527 27.99 58.6254 27.99C59.4527 27.99 60.1837 28.1827 60.8184 28.568C61.4531 28.942 61.9234 29.452 62.2294 30.098L61.1074 30.455C60.8581 30.0017 60.5067 29.6503 60.0534 29.401C59.6114 29.1403 59.1184 29.01 58.5744 29.01C57.9851 29.01 57.4467 29.163 56.9594 29.469C56.4721 29.775 56.0811 30.1943 55.7864 30.727C55.5031 31.2597 55.3614 31.866 55.3614 32.546C55.3614 33.2147 55.5087 33.821 55.8034 34.365C56.0981 34.909 56.4891 35.3453 56.9764 35.674C57.4637 35.9913 58.0021 36.15 58.5914 36.15C58.9767 36.15 59.3451 36.082 59.6964 35.946C60.0591 35.81 60.3707 35.6287 60.6314 35.402C60.9034 35.164 61.0847 34.909 61.1754 34.637L62.3144 34.977C62.1557 35.3963 61.8894 35.776 61.5154 36.116C61.1527 36.4447 60.7221 36.7053 60.2234 36.898C59.7361 37.0793 59.2091 37.17 58.6424 37.17ZM67.8215 37.17C67.1868 37.17 66.5975 37.051 66.0535 36.813C65.5208 36.5637 65.0561 36.2293 64.6595 35.81C64.2741 35.3793 63.9738 34.892 63.7585 34.348C63.5431 33.7927 63.4355 33.209 63.4355 32.597C63.4355 31.9623 63.5431 31.373 63.7585 30.829C63.9738 30.2737 64.2798 29.7863 64.6765 29.367C65.0731 28.9363 65.5378 28.602 66.0705 28.364C66.6145 28.1147 67.2038 27.99 67.8385 27.99C68.4731 27.99 69.0568 28.1147 69.5895 28.364C70.1221 28.602 70.5868 28.9363 70.9835 29.367C71.3801 29.7863 71.6861 30.2737 71.9015 30.829C72.1168 31.373 72.2245 31.9623 72.2245 32.597C72.2245 33.209 72.1168 33.7927 71.9015 34.348C71.6861 34.892 71.3801 35.3793 70.9835 35.81C70.5981 36.2293 70.1335 36.5637 69.5895 36.813C69.0568 37.051 68.4675 37.17 67.8215 37.17ZM64.6085 32.614C64.6085 33.2713 64.7501 33.872 65.0335 34.416C65.3281 34.9487 65.7191 35.3737 66.2065 35.691C66.6938 35.997 67.2321 36.15 67.8215 36.15C68.4108 36.15 68.9491 35.9913 69.4365 35.674C69.9238 35.3567 70.3148 34.926 70.6095 34.382C70.9041 33.8267 71.0515 33.226 71.0515 32.58C71.0515 31.9227 70.9041 31.322 70.6095 30.778C70.3148 30.234 69.9238 29.8033 69.4365 29.486C68.9491 29.1687 68.4108 29.01 67.8215 29.01C67.2321 29.01 66.6938 29.1743 66.2065 29.503C65.7305 29.8317 65.3451 30.268 65.0505 30.812C64.7558 31.3447 64.6085 31.9453 64.6085 32.614ZM81.6038 37H80.4478V32.053C80.4478 31.0103 80.2948 30.251 79.9888 29.775C79.6828 29.2877 79.2011 29.044 78.5438 29.044C78.0905 29.044 77.6428 29.1573 77.2008 29.384C76.7588 29.5993 76.3678 29.8997 76.0278 30.285C75.6991 30.659 75.4611 31.0897 75.3138 31.577V37H74.1578V28.143H75.2118V30.149C75.4498 29.7183 75.7615 29.3443 76.1468 29.027C76.5321 28.6983 76.9685 28.4433 77.4558 28.262C77.9431 28.0807 78.4475 27.99 78.9688 27.99C79.4561 27.99 79.8698 28.0807 80.2098 28.262C80.5498 28.4433 80.8218 28.704 81.0258 29.044C81.2298 29.3727 81.3771 29.775 81.4678 30.251C81.5585 30.7157 81.6038 31.237 81.6038 31.815V37ZM87.688 34.45C87.688 33.8947 87.8466 33.4187 88.164 33.022C88.4813 32.614 88.9176 32.3023 89.473 32.087C90.0396 31.8603 90.6913 31.747 91.428 31.747C91.8586 31.747 92.3063 31.781 92.771 31.849C93.2356 31.917 93.6493 32.019 94.012 32.155V31.407C94.012 30.659 93.791 30.064 93.349 29.622C92.907 29.18 92.295 28.959 91.513 28.959C91.037 28.959 90.5666 29.0497 90.102 29.231C89.6486 29.401 89.1726 29.656 88.674 29.996L88.232 29.18C88.81 28.7833 89.3766 28.4887 89.932 28.296C90.4873 28.092 91.054 27.99 91.632 27.99C92.72 27.99 93.5813 28.3017 94.216 28.925C94.8506 29.5483 95.168 30.4097 95.168 31.509V35.606C95.168 35.7647 95.202 35.8837 95.27 35.963C95.338 36.031 95.4456 36.0707 95.593 36.082V37C95.4683 37.0113 95.3606 37.0227 95.27 37.034C95.1793 37.0453 95.1113 37.0453 95.066 37.034C94.7826 37.0227 94.5673 36.932 94.42 36.762C94.2726 36.592 94.1933 36.4107 94.182 36.218L94.165 35.572C93.7683 36.082 93.2526 36.4787 92.618 36.762C91.9833 37.034 91.3373 37.17 90.68 37.17C90.1133 37.17 89.5976 37.051 89.133 36.813C88.6796 36.5637 88.3226 36.235 88.062 35.827C87.8126 35.4077 87.688 34.9487 87.688 34.45ZM93.621 35.13C93.7456 34.9713 93.842 34.8183 93.91 34.671C93.978 34.5237 94.012 34.3933 94.012 34.28V32.988C93.6266 32.8407 93.2243 32.7273 92.805 32.648C92.397 32.5687 91.9833 32.529 91.564 32.529C90.7366 32.529 90.068 32.6933 89.558 33.022C89.048 33.3507 88.793 33.7983 88.793 34.365C88.793 34.6937 88.878 35.0053 89.048 35.3C89.218 35.5833 89.4673 35.8213 89.796 36.014C90.1246 36.1953 90.51 36.286 90.952 36.286C91.5073 36.286 92.023 36.1783 92.499 35.963C92.9863 35.7477 93.3603 35.47 93.621 35.13ZM105.112 37H103.956V32.053C103.956 31.0103 103.803 30.251 103.497 29.775C103.191 29.2877 102.709 29.044 102.052 29.044C101.598 29.044 101.151 29.1573 100.709 29.384C100.267 29.5993 99.8756 29.8997 99.5356 30.285C99.207 30.659 98.969 31.0897 98.8216 31.577V37H97.6656V28.143H98.7196V30.149C98.9576 29.7183 99.2693 29.3443 99.6546 29.027C100.04 28.6983 100.476 28.4433 100.964 28.262C101.451 28.0807 101.955 27.99 102.477 27.99C102.964 27.99 103.378 28.0807 103.718 28.262C104.058 28.4433 104.33 28.704 104.534 29.044C104.738 29.3727 104.885 29.775 104.976 30.251C105.066 30.7157 105.112 31.237 105.112 31.815V37ZM106.982 32.597C106.982 31.7583 107.152 30.9933 107.492 30.302C107.843 29.5993 108.325 29.0383 108.937 28.619C109.549 28.1997 110.246 27.99 111.028 27.99C111.764 27.99 112.422 28.1883 113 28.585C113.589 28.9703 114.048 29.4407 114.377 29.996V24.59H115.533V35.606C115.533 35.7647 115.567 35.8837 115.635 35.963C115.703 36.031 115.805 36.0707 115.941 36.082V37C115.714 37.034 115.538 37.0453 115.414 37.034C115.176 37.0227 114.966 36.9263 114.785 36.745C114.603 36.5637 114.513 36.3653 114.513 36.15V35.283C114.161 35.861 113.685 36.32 113.085 36.66C112.484 37 111.861 37.17 111.215 37.17C110.603 37.17 110.036 37.0453 109.515 36.796C109.005 36.5467 108.557 36.2067 108.172 35.776C107.798 35.3453 107.503 34.858 107.288 34.314C107.084 33.7587 106.982 33.1863 106.982 32.597ZM114.377 33.957V31.22C114.229 30.812 113.991 30.4437 113.663 30.115C113.334 29.775 112.96 29.5087 112.541 29.316C112.133 29.112 111.725 29.01 111.317 29.01C110.841 29.01 110.41 29.112 110.025 29.316C109.639 29.5087 109.305 29.775 109.022 30.115C108.75 30.455 108.54 30.8403 108.393 31.271C108.245 31.7017 108.172 32.1437 108.172 32.597C108.172 33.073 108.251 33.5263 108.41 33.957C108.58 34.3877 108.818 34.773 109.124 35.113C109.43 35.4417 109.781 35.6967 110.178 35.878C110.574 36.0593 111.005 36.15 111.47 36.15C111.764 36.15 112.07 36.0933 112.388 35.98C112.705 35.8667 113.005 35.7137 113.289 35.521C113.583 35.317 113.827 35.079 114.02 34.807C114.212 34.535 114.331 34.2517 114.377 33.957ZM126.31 37.17C125.675 37.17 125.086 37.051 124.542 36.813C123.998 36.5637 123.528 36.2293 123.131 35.81C122.734 35.3793 122.423 34.8863 122.196 34.331C121.981 33.7757 121.873 33.1807 121.873 32.546C121.873 31.7187 122.06 30.9593 122.434 30.268C122.819 29.5767 123.346 29.027 124.015 28.619C124.684 28.1997 125.443 27.99 126.293 27.99C127.166 27.99 127.925 28.1997 128.571 28.619C129.228 29.0383 129.744 29.5937 130.118 30.285C130.492 30.965 130.679 31.713 130.679 32.529C130.679 32.6197 130.679 32.7103 130.679 32.801C130.679 32.8803 130.673 32.9427 130.662 32.988H123.08C123.137 33.6227 123.312 34.1893 123.607 34.688C123.913 35.1753 124.304 35.5663 124.78 35.861C125.267 36.1443 125.794 36.286 126.361 36.286C126.939 36.286 127.483 36.1387 127.993 35.844C128.514 35.5493 128.877 35.164 129.081 34.688L130.084 34.96C129.903 35.3793 129.625 35.759 129.251 36.099C128.877 36.439 128.435 36.7053 127.925 36.898C127.426 37.0793 126.888 37.17 126.31 37.17ZM123.046 32.155H129.591C129.546 31.509 129.37 30.9423 129.064 30.455C128.769 29.9677 128.378 29.588 127.891 29.316C127.415 29.0327 126.888 28.891 126.31 28.891C125.732 28.891 125.205 29.0327 124.729 29.316C124.253 29.588 123.862 29.9733 123.556 30.472C123.261 30.9593 123.091 31.5203 123.046 32.155ZM139.909 37H138.753V32.053C138.753 31.0103 138.6 30.251 138.294 29.775C137.988 29.2877 137.506 29.044 136.849 29.044C136.395 29.044 135.948 29.1573 135.506 29.384C135.064 29.5993 134.673 29.8997 134.333 30.285C134.004 30.659 133.766 31.0897 133.619 31.577V37H132.463V28.143H133.517V30.149C133.755 29.7183 134.066 29.3443 134.452 29.027C134.837 28.6983 135.273 28.4433 135.761 28.262C136.248 28.0807 136.752 27.99 137.274 27.99C137.761 27.99 138.175 28.0807 138.515 28.262C138.855 28.4433 139.127 28.704 139.331 29.044C139.535 29.3727 139.682 29.775 139.772 30.251C139.863 30.7157 139.909 31.237 139.909 31.815V37ZM146.541 36.575C146.45 36.609 146.308 36.6713 146.116 36.762C145.923 36.8527 145.691 36.932 145.419 37C145.147 37.068 144.852 37.102 144.535 37.102C144.206 37.102 143.894 37.0397 143.6 36.915C143.316 36.7903 143.09 36.6033 142.92 36.354C142.75 36.0933 142.665 35.776 142.665 35.402V29.061H141.441V28.143H142.665V25.151H143.821V28.143H145.861V29.061H143.821V35.079C143.843 35.3963 143.957 35.6343 144.161 35.793C144.376 35.9517 144.62 36.031 144.892 36.031C145.209 36.031 145.498 35.98 145.759 35.878C146.019 35.7647 146.178 35.6853 146.235 35.64L146.541 36.575ZM151.661 37.17C151.026 37.17 150.437 37.051 149.893 36.813C149.349 36.5637 148.878 36.2293 148.482 35.81C148.085 35.3793 147.773 34.8863 147.547 34.331C147.331 33.7757 147.224 33.1807 147.224 32.546C147.224 31.7187 147.411 30.9593 147.785 30.268C148.17 29.5767 148.697 29.027 149.366 28.619C150.034 28.1997 150.794 27.99 151.644 27.99C152.516 27.99 153.276 28.1997 153.922 28.619C154.579 29.0383 155.095 29.5937 155.469 30.285C155.843 30.965 156.03 31.713 156.03 32.529C156.03 32.6197 156.03 32.7103 156.03 32.801C156.03 32.8803 156.024 32.9427 156.013 32.988H148.431C148.487 33.6227 148.663 34.1893 148.958 34.688C149.264 35.1753 149.655 35.5663 150.131 35.861C150.618 36.1443 151.145 36.286 151.712 36.286C152.29 36.286 152.834 36.1387 153.344 35.844C153.865 35.5493 154.228 35.164 154.432 34.688L155.435 34.96C155.253 35.3793 154.976 35.759 154.602 36.099C154.228 36.439 153.786 36.7053 153.276 36.898C152.777 37.0793 152.239 37.17 151.661 37.17ZM148.397 32.155H154.942C154.896 31.509 154.721 30.9423 154.415 30.455C154.12 29.9677 153.729 29.588 153.242 29.316C152.766 29.0327 152.239 28.891 151.661 28.891C151.083 28.891 150.556 29.0327 150.08 29.316C149.604 29.588 149.213 29.9733 148.907 30.472C148.612 30.9593 148.442 31.5203 148.397 32.155ZM162.233 29.163C161.462 29.1857 160.782 29.401 160.193 29.809C159.615 30.217 159.207 30.778 158.969 31.492V37H157.813V28.143H158.901V30.268C159.207 29.6447 159.609 29.1403 160.108 28.755C160.618 28.3697 161.156 28.1543 161.723 28.109C161.836 28.0977 161.933 28.092 162.012 28.092C162.103 28.092 162.176 28.0977 162.233 28.109V29.163ZM171.958 36.575C171.867 36.609 171.725 36.6713 171.533 36.762C171.34 36.8527 171.108 36.932 170.836 37C170.564 37.068 170.269 37.102 169.952 37.102C169.623 37.102 169.311 37.0397 169.017 36.915C168.733 36.7903 168.507 36.6033 168.337 36.354C168.167 36.0933 168.082 35.776 168.082 35.402V29.061H166.858V28.143H168.082V25.151H169.238V28.143H171.278V29.061H169.238V35.079C169.26 35.3963 169.374 35.6343 169.578 35.793C169.793 35.9517 170.037 36.031 170.309 36.031C170.626 36.031 170.915 35.98 171.176 35.878C171.436 35.7647 171.595 35.6853 171.652 35.64L171.958 36.575ZM180.848 37H179.692V32.053C179.692 31.0557 179.516 30.3077 179.165 29.809C178.814 29.299 178.309 29.044 177.652 29.044C177.221 29.044 176.791 29.1573 176.36 29.384C175.941 29.5993 175.567 29.8997 175.238 30.285C174.921 30.659 174.694 31.0897 174.558 31.577V37H173.402V24.59H174.558V30.149C174.909 29.4917 175.397 28.9703 176.02 28.585C176.655 28.1883 177.329 27.99 178.043 27.99C178.553 27.99 178.984 28.0807 179.335 28.262C179.698 28.4433 179.987 28.7097 180.202 29.061C180.429 29.401 180.593 29.8033 180.695 30.268C180.797 30.7213 180.848 31.237 180.848 31.815V37ZM187.138 37.17C186.503 37.17 185.914 37.051 185.37 36.813C184.826 36.5637 184.356 36.2293 183.959 35.81C183.562 35.3793 183.251 34.8863 183.024 34.331C182.809 33.7757 182.701 33.1807 182.701 32.546C182.701 31.7187 182.888 30.9593 183.262 30.268C183.647 29.5767 184.174 29.027 184.843 28.619C185.512 28.1997 186.271 27.99 187.121 27.99C187.994 27.99 188.753 28.1997 189.399 28.619C190.056 29.0383 190.572 29.5937 190.946 30.285C191.32 30.965 191.507 31.713 191.507 32.529C191.507 32.6197 191.507 32.7103 191.507 32.801C191.507 32.8803 191.501 32.9427 191.49 32.988H183.908C183.965 33.6227 184.14 34.1893 184.435 34.688C184.741 35.1753 185.132 35.5663 185.608 35.861C186.095 36.1443 186.622 36.286 187.189 36.286C187.767 36.286 188.311 36.1387 188.821 35.844C189.342 35.5493 189.705 35.164 189.909 34.688L190.912 34.96C190.731 35.3793 190.453 35.759 190.079 36.099C189.705 36.439 189.263 36.7053 188.753 36.898C188.254 37.0793 187.716 37.17 187.138 37.17ZM183.874 32.155H190.419C190.374 31.509 190.198 30.9423 189.892 30.455C189.597 29.9677 189.206 29.588 188.719 29.316C188.243 29.0327 187.716 28.891 187.138 28.891C186.56 28.891 186.033 29.0327 185.557 29.316C185.081 29.588 184.69 29.9733 184.384 30.472C184.089 30.9593 183.919 31.5203 183.874 32.155ZM205.07 37H203.914V32.053C203.914 31.0103 203.761 30.251 203.455 29.775C203.149 29.2877 202.667 29.044 202.01 29.044C201.556 29.044 201.109 29.1573 200.667 29.384C200.225 29.5993 199.834 29.8997 199.494 30.285C199.165 30.659 198.927 31.0897 198.78 31.577V37H197.624V28.143H198.678V30.149C198.916 29.7183 199.227 29.3443 199.613 29.027C199.998 28.6983 200.434 28.4433 200.922 28.262C201.409 28.0807 201.913 27.99 202.435 27.99C202.922 27.99 203.336 28.0807 203.676 28.262C204.016 28.4433 204.288 28.704 204.492 29.044C204.696 29.3727 204.843 29.775 204.934 30.251C205.024 30.7157 205.07 31.237 205.07 31.815V37ZM206.821 34.45C206.821 33.8947 206.979 33.4187 207.297 33.022C207.614 32.614 208.05 32.3023 208.606 32.087C209.172 31.8603 209.824 31.747 210.561 31.747C210.991 31.747 211.439 31.781 211.904 31.849C212.368 31.917 212.782 32.019 213.145 32.155V31.407C213.145 30.659 212.924 30.064 212.482 29.622C212.04 29.18 211.428 28.959 210.646 28.959C210.17 28.959 209.699 29.0497 209.235 29.231C208.781 29.401 208.305 29.656 207.807 29.996L207.365 29.18C207.943 28.7833 208.509 28.4887 209.065 28.296C209.62 28.092 210.187 27.99 210.765 27.99C211.853 27.99 212.714 28.3017 213.349 28.925C213.983 29.5483 214.301 30.4097 214.301 31.509V35.606C214.301 35.7647 214.335 35.8837 214.403 35.963C214.471 36.031 214.578 36.0707 214.726 36.082V37C214.601 37.0113 214.493 37.0227 214.403 37.034C214.312 37.0453 214.244 37.0453 214.199 37.034C213.915 37.0227 213.7 36.932 213.553 36.762C213.405 36.592 213.326 36.4107 213.315 36.218L213.298 35.572C212.901 36.082 212.385 36.4787 211.751 36.762C211.116 37.034 210.47 37.17 209.813 37.17C209.246 37.17 208.73 37.051 208.266 36.813C207.812 36.5637 207.455 36.235 207.195 35.827C206.945 35.4077 206.821 34.9487 206.821 34.45ZM212.754 35.13C212.878 34.9713 212.975 34.8183 213.043 34.671C213.111 34.5237 213.145 34.3933 213.145 34.28V32.988C212.759 32.8407 212.357 32.7273 211.938 32.648C211.53 32.5687 211.116 32.529 210.697 32.529C209.869 32.529 209.201 32.6933 208.691 33.022C208.181 33.3507 207.926 33.7983 207.926 34.365C207.926 34.6937 208.011 35.0053 208.181 35.3C208.351 35.5833 208.6 35.8213 208.929 36.014C209.257 36.1953 209.643 36.286 210.085 36.286C210.64 36.286 211.156 36.1783 211.632 35.963C212.119 35.7477 212.493 35.47 212.754 35.13ZM229.973 37H228.817V32.053C228.817 31.0217 228.653 30.2623 228.324 29.775C227.996 29.2877 227.508 29.044 226.862 29.044C226.194 29.044 225.593 29.282 225.06 29.758C224.539 30.234 224.171 30.846 223.955 31.594V37H222.799V32.053C222.799 31.0103 222.641 30.251 222.323 29.775C222.006 29.2877 221.519 29.044 220.861 29.044C220.204 29.044 219.609 29.2763 219.076 29.741C218.544 30.2057 218.17 30.8177 217.954 31.577V37H216.798V28.143H217.852V30.149C218.226 29.4577 218.702 28.925 219.28 28.551C219.87 28.177 220.521 27.99 221.235 27.99C221.972 27.99 222.567 28.1997 223.02 28.619C223.474 29.0383 223.751 29.588 223.853 30.268C224.261 29.52 224.749 28.9533 225.315 28.568C225.893 28.1827 226.545 27.99 227.27 27.99C227.769 27.99 228.188 28.0807 228.528 28.262C228.88 28.4433 229.157 28.704 229.361 29.044C229.577 29.3727 229.73 29.775 229.82 30.251C229.922 30.7157 229.973 31.237 229.973 31.815V37ZM236.246 37.17C235.611 37.17 235.022 37.051 234.478 36.813C233.934 36.5637 233.463 36.2293 233.067 35.81C232.67 35.3793 232.358 34.8863 232.132 34.331C231.916 33.7757 231.809 33.1807 231.809 32.546C231.809 31.7187 231.996 30.9593 232.37 30.268C232.755 29.5767 233.282 29.027 233.951 28.619C234.619 28.1997 235.379 27.99 236.229 27.99C237.101 27.99 237.861 28.1997 238.507 28.619C239.164 29.0383 239.68 29.5937 240.054 30.285C240.428 30.965 240.615 31.713 240.615 32.529C240.615 32.6197 240.615 32.7103 240.615 32.801C240.615 32.8803 240.609 32.9427 240.598 32.988H233.016C233.072 33.6227 233.248 34.1893 233.543 34.688C233.849 35.1753 234.24 35.5663 234.716 35.861C235.203 36.1443 235.73 36.286 236.297 36.286C236.875 36.286 237.419 36.1387 237.929 35.844C238.45 35.5493 238.813 35.164 239.017 34.688L240.02 34.96C239.838 35.3793 239.561 35.759 239.187 36.099C238.813 36.439 238.371 36.7053 237.861 36.898C237.362 37.0793 236.824 37.17 236.246 37.17ZM232.982 32.155H239.527C239.481 31.509 239.306 30.9423 239 30.455C238.705 29.9677 238.314 29.588 237.827 29.316C237.351 29.0327 236.824 28.891 236.246 28.891C235.668 28.891 235.141 29.0327 234.665 29.316C234.189 29.588 233.798 29.9733 233.492 30.472C233.197 30.9593 233.027 31.5203 232.982 32.155ZM250.505 37.17C249.87 37.17 249.281 37.051 248.737 36.813C248.204 36.5637 247.74 36.2293 247.343 35.81C246.958 35.3793 246.657 34.892 246.442 34.348C246.227 33.7927 246.119 33.209 246.119 32.597C246.119 31.9623 246.227 31.373 246.442 30.829C246.657 30.2737 246.963 29.7863 247.36 29.367C247.757 28.9363 248.221 28.602 248.754 28.364C249.298 28.1147 249.887 27.99 250.522 27.99C251.157 27.99 251.74 28.1147 252.273 28.364C252.806 28.602 253.27 28.9363 253.667 29.367C254.064 29.7863 254.37 30.2737 254.585 30.829C254.8 31.373 254.908 31.9623 254.908 32.597C254.908 33.209 254.8 33.7927 254.585 34.348C254.37 34.892 254.064 35.3793 253.667 35.81C253.282 36.2293 252.817 36.5637 252.273 36.813C251.74 37.051 251.151 37.17 250.505 37.17ZM247.292 32.614C247.292 33.2713 247.434 33.872 247.717 34.416C248.012 34.9487 248.403 35.3737 248.89 35.691C249.377 35.997 249.916 36.15 250.505 36.15C251.094 36.15 251.633 35.9913 252.12 35.674C252.607 35.3567 252.998 34.926 253.293 34.382C253.588 33.8267 253.735 33.226 253.735 32.58C253.735 31.9227 253.588 31.322 253.293 30.778C252.998 30.234 252.607 29.8033 252.12 29.486C251.633 29.1687 251.094 29.01 250.505 29.01C249.916 29.01 249.377 29.1743 248.89 29.503C248.414 29.8317 248.029 30.268 247.734 30.812C247.439 31.3447 247.292 31.9453 247.292 32.614ZM257.117 37V29.061H255.893V28.143H257.117V27.905C257.117 27.1797 257.219 26.5563 257.423 26.035C257.638 25.5137 257.939 25.117 258.324 24.845C258.721 24.5617 259.185 24.42 259.718 24.42C260.069 24.42 260.409 24.471 260.738 24.573C261.067 24.675 261.35 24.811 261.588 24.981L261.231 25.814C261.084 25.6893 260.891 25.593 260.653 25.525C260.415 25.457 260.177 25.423 259.939 25.423C259.406 25.423 258.993 25.6327 258.698 26.052C258.415 26.4713 258.273 27.0777 258.273 27.871V28.143H260.721V29.061H258.273V37H257.117ZM270.504 36.575C270.414 36.609 270.272 36.6713 270.079 36.762C269.887 36.8527 269.654 36.932 269.382 37C269.11 37.068 268.816 37.102 268.498 37.102C268.17 37.102 267.858 37.0397 267.563 36.915C267.28 36.7903 267.053 36.6033 266.883 36.354C266.713 36.0933 266.628 35.776 266.628 35.402V29.061H265.404V28.143H266.628V25.151H267.784V28.143H269.824V29.061H267.784V35.079C267.807 35.3963 267.92 35.6343 268.124 35.793C268.34 35.9517 268.583 36.031 268.855 36.031C269.173 36.031 269.462 35.98 269.722 35.878C269.983 35.7647 270.142 35.6853 270.198 35.64L270.504 36.575ZM279.395 37H278.239V32.053C278.239 31.0557 278.063 30.3077 277.712 29.809C277.36 29.299 276.856 29.044 276.199 29.044C275.768 29.044 275.337 29.1573 274.907 29.384C274.487 29.5993 274.113 29.8997 273.785 30.285C273.467 30.659 273.241 31.0897 273.105 31.577V37H271.949V24.59H273.105V30.149C273.456 29.4917 273.943 28.9703 274.567 28.585C275.201 28.1883 275.876 27.99 276.59 27.99C277.1 27.99 277.53 28.0807 277.882 28.262C278.244 28.4433 278.533 28.7097 278.749 29.061C278.975 29.401 279.14 29.8033 279.242 30.268C279.344 30.7213 279.395 31.237 279.395 31.815V37ZM285.685 37.17C285.05 37.17 284.461 37.051 283.917 36.813C283.373 36.5637 282.903 36.2293 282.506 35.81C282.109 35.3793 281.798 34.8863 281.571 34.331C281.356 33.7757 281.248 33.1807 281.248 32.546C281.248 31.7187 281.435 30.9593 281.809 30.268C282.194 29.5767 282.721 29.027 283.39 28.619C284.059 28.1997 284.818 27.99 285.668 27.99C286.541 27.99 287.3 28.1997 287.946 28.619C288.603 29.0383 289.119 29.5937 289.493 30.285C289.867 30.965 290.054 31.713 290.054 32.529C290.054 32.6197 290.054 32.7103 290.054 32.801C290.054 32.8803 290.048 32.9427 290.037 32.988H282.455C282.512 33.6227 282.687 34.1893 282.982 34.688C283.288 35.1753 283.679 35.5663 284.155 35.861C284.642 36.1443 285.169 36.286 285.736 36.286C286.314 36.286 286.858 36.1387 287.368 35.844C287.889 35.5493 288.252 35.164 288.456 34.688L289.459 34.96C289.278 35.3793 289 35.759 288.626 36.099C288.252 36.439 287.81 36.7053 287.3 36.898C286.801 37.0793 286.263 37.17 285.685 37.17ZM282.421 32.155H288.966C288.921 31.509 288.745 30.9423 288.439 30.455C288.144 29.9677 287.753 29.588 287.266 29.316C286.79 29.0327 286.263 28.891 285.685 28.891C285.107 28.891 284.58 29.0327 284.104 29.316C283.628 29.588 283.237 29.9733 282.931 30.472C282.636 30.9593 282.466 31.5203 282.421 32.155ZM53.3743 61V53.061H52.1503V52.143H53.3743V51.905C53.3743 51.1797 53.4763 50.5563 53.6803 50.035C53.8956 49.5137 54.196 49.117 54.5813 48.845C54.978 48.5617 55.4427 48.42 55.9753 48.42C56.3266 48.42 56.6666 48.471 56.9953 48.573C57.324 48.675 57.6073 48.811 57.8453 48.981L57.4883 49.814C57.341 49.6893 57.1483 49.593 56.9103 49.525C56.6723 49.457 56.4343 49.423 56.1963 49.423C55.6636 49.423 55.25 49.6327 54.9553 50.052C54.672 50.4713 54.5303 51.0777 54.5303 51.871V52.143H56.9783V53.061H54.5303V61H53.3743ZM62.0524 61.17C61.4178 61.17 60.8284 61.051 60.2844 60.813C59.7518 60.5637 59.2871 60.2293 58.8904 59.81C58.5051 59.3793 58.2048 58.892 57.9894 58.348C57.7741 57.7927 57.6664 57.209 57.6664 56.597C57.6664 55.9623 57.7741 55.373 57.9894 54.829C58.2048 54.2737 58.5108 53.7863 58.9074 53.367C59.3041 52.9363 59.7688 52.602 60.3014 52.364C60.8454 52.1147 61.4348 51.99 62.0694 51.99C62.7041 51.99 63.2878 52.1147 63.8204 52.364C64.3531 52.602 64.8178 52.9363 65.2144 53.367C65.6111 53.7863 65.9171 54.2737 66.1324 54.829C66.3478 55.373 66.4554 55.9623 66.4554 56.597C66.4554 57.209 66.3478 57.7927 66.1324 58.348C65.9171 58.892 65.6111 59.3793 65.2144 59.81C64.8291 60.2293 64.3644 60.5637 63.8204 60.813C63.2878 61.051 62.6984 61.17 62.0524 61.17ZM58.8394 56.614C58.8394 57.2713 58.9811 57.872 59.2644 58.416C59.5591 58.9487 59.9501 59.3737 60.4374 59.691C60.9248 59.997 61.4631 60.15 62.0524 60.15C62.6418 60.15 63.1801 59.9913 63.6674 59.674C64.1548 59.3567 64.5458 58.926 64.8404 58.382C65.1351 57.8267 65.2824 57.226 65.2824 56.58C65.2824 55.9227 65.1351 55.322 64.8404 54.778C64.5458 54.234 64.1548 53.8033 63.6674 53.486C63.1801 53.1687 62.6418 53.01 62.0524 53.01C61.4631 53.01 60.9248 53.1743 60.4374 53.503C59.9614 53.8317 59.5761 54.268 59.2814 54.812C58.9868 55.3447 58.8394 55.9453 58.8394 56.614ZM72.1628 61.17C71.5281 61.17 70.9388 61.051 70.3948 60.813C69.8621 60.5637 69.3974 60.2293 69.0008 59.81C68.6154 59.3793 68.3151 58.892 68.0998 58.348C67.8844 57.7927 67.7768 57.209 67.7768 56.597C67.7768 55.9623 67.8844 55.373 68.0998 54.829C68.3151 54.2737 68.6211 53.7863 69.0178 53.367C69.4144 52.9363 69.8791 52.602 70.4118 52.364C70.9558 52.1147 71.5451 51.99 72.1798 51.99C72.8144 51.99 73.3981 52.1147 73.9308 52.364C74.4634 52.602 74.9281 52.9363 75.3248 53.367C75.7214 53.7863 76.0274 54.2737 76.2428 54.829C76.4581 55.373 76.5658 55.9623 76.5658 56.597C76.5658 57.209 76.4581 57.7927 76.2428 58.348C76.0274 58.892 75.7214 59.3793 75.3248 59.81C74.9394 60.2293 74.4748 60.5637 73.9308 60.813C73.3981 61.051 72.8088 61.17 72.1628 61.17ZM68.9498 56.614C68.9498 57.2713 69.0914 57.872 69.3748 58.416C69.6694 58.9487 70.0604 59.3737 70.5478 59.691C71.0351 59.997 71.5734 60.15 72.1628 60.15C72.7521 60.15 73.2904 59.9913 73.7778 59.674C74.2651 59.3567 74.6561 58.926 74.9508 58.382C75.2454 57.8267 75.3928 57.226 75.3928 56.58C75.3928 55.9227 75.2454 55.322 74.9508 54.778C74.6561 54.234 74.2651 53.8033 73.7778 53.486C73.2904 53.1687 72.7521 53.01 72.1628 53.01C71.5734 53.01 71.0351 53.1743 70.5478 53.503C70.0718 53.8317 69.6864 54.268 69.3918 54.812C69.0971 55.3447 68.9498 55.9453 68.9498 56.614ZM77.9041 56.597C77.9041 55.7583 78.0741 54.9933 78.4141 54.302C78.7655 53.5993 79.2471 53.0383 79.8591 52.619C80.4711 52.1997 81.1681 51.99 81.9501 51.99C82.6868 51.99 83.3441 52.1883 83.9221 52.585C84.5115 52.9703 84.9705 53.4407 85.2991 53.996V48.59H86.4551V59.606C86.4551 59.7647 86.4891 59.8837 86.5571 59.963C86.6251 60.031 86.7271 60.0707 86.8631 60.082V61C86.6365 61.034 86.4608 61.0453 86.3361 61.034C86.0981 61.0227 85.8885 60.9263 85.7071 60.745C85.5258 60.5637 85.4351 60.3653 85.4351 60.15V59.283C85.0838 59.861 84.6078 60.32 84.0071 60.66C83.4065 61 82.7831 61.17 82.1371 61.17C81.5251 61.17 80.9585 61.0453 80.4371 60.796C79.9271 60.5467 79.4795 60.2067 79.0941 59.776C78.7201 59.3453 78.4255 58.858 78.2101 58.314C78.0061 57.7587 77.9041 57.1863 77.9041 56.597ZM85.2991 57.957V55.22C85.1518 54.812 84.9138 54.4437 84.5851 54.115C84.2565 53.775 83.8825 53.5087 83.4631 53.316C83.0551 53.112 82.6471 53.01 82.2391 53.01C81.7631 53.01 81.3325 53.112 80.9471 53.316C80.5618 53.5087 80.2275 53.775 79.9441 54.115C79.6721 54.455 79.4625 54.8403 79.3151 55.271C79.1678 55.7017 79.0941 56.1437 79.0941 56.597C79.0941 57.073 79.1735 57.5263 79.3321 57.957C79.5021 58.3877 79.7401 58.773 80.0461 59.113C80.3521 59.4417 80.7035 59.6967 81.1001 59.878C81.4968 60.0593 81.9275 60.15 82.3921 60.15C82.6868 60.15 82.9928 60.0933 83.3101 59.98C83.6275 59.8667 83.9278 59.7137 84.2111 59.521C84.5058 59.317 84.7495 59.079 84.9421 58.807C85.1348 58.535 85.2538 58.2517 85.2991 57.957ZM93.4525 63.72C93.6111 63.7313 93.7641 63.737 93.9115 63.737C94.0588 63.7483 94.1665 63.7427 94.2345 63.72C94.3705 63.6973 94.5008 63.618 94.6255 63.482C94.7501 63.346 94.8975 63.0853 95.0675 62.7C95.2375 62.3147 95.4755 61.748 95.7815 61L91.9225 52.143H93.1465L96.3935 59.81L99.3855 52.143H100.541L95.9515 63.567C95.8721 63.7823 95.7531 63.9807 95.5945 64.162C95.4358 64.3547 95.2375 64.502 94.9995 64.604C94.7728 64.7173 94.4895 64.7797 94.1495 64.791C94.0475 64.8023 93.9398 64.8023 93.8265 64.791C93.7245 64.791 93.5998 64.7797 93.4525 64.757V63.72ZM105.615 61.17C104.98 61.17 104.391 61.051 103.847 60.813C103.314 60.5637 102.85 60.2293 102.453 59.81C102.068 59.3793 101.767 58.892 101.552 58.348C101.337 57.7927 101.229 57.209 101.229 56.597C101.229 55.9623 101.337 55.373 101.552 54.829C101.767 54.2737 102.073 53.7863 102.47 53.367C102.867 52.9363 103.331 52.602 103.864 52.364C104.408 52.1147 104.997 51.99 105.632 51.99C106.267 51.99 106.85 52.1147 107.383 52.364C107.916 52.602 108.38 52.9363 108.777 53.367C109.174 53.7863 109.48 54.2737 109.695 54.829C109.91 55.373 110.018 55.9623 110.018 56.597C110.018 57.209 109.91 57.7927 109.695 58.348C109.48 58.892 109.174 59.3793 108.777 59.81C108.392 60.2293 107.927 60.5637 107.383 60.813C106.85 61.051 106.261 61.17 105.615 61.17ZM102.402 56.614C102.402 57.2713 102.544 57.872 102.827 58.416C103.122 58.9487 103.513 59.3737 104 59.691C104.487 59.997 105.026 60.15 105.615 60.15C106.204 60.15 106.743 59.9913 107.23 59.674C107.717 59.3567 108.108 58.926 108.403 58.382C108.698 57.8267 108.845 57.226 108.845 56.58C108.845 55.9227 108.698 55.322 108.403 54.778C108.108 54.234 107.717 53.8033 107.23 53.486C106.743 53.1687 106.204 53.01 105.615 53.01C105.026 53.01 104.487 53.1743 104 53.503C103.524 53.8317 103.139 54.268 102.844 54.812C102.549 55.3447 102.402 55.9453 102.402 56.614ZM111.866 57.345V52.143H113.022V57.141C113.022 58.1497 113.192 58.9033 113.532 59.402C113.884 59.9007 114.399 60.15 115.079 60.15C115.533 60.15 115.969 60.0537 116.388 59.861C116.819 59.657 117.199 59.3737 117.527 59.011C117.856 58.637 118.105 58.2063 118.275 57.719V52.143H119.431V59.606C119.431 59.7647 119.465 59.8837 119.533 59.963C119.601 60.031 119.703 60.0707 119.839 60.082V61C119.703 61.0113 119.596 61.017 119.516 61.017C119.437 61.0283 119.363 61.034 119.295 61.034C119.069 61.0113 118.87 60.9207 118.7 60.762C118.542 60.6033 118.457 60.4107 118.445 60.184L118.411 58.994C118.026 59.674 117.499 60.2067 116.83 60.592C116.173 60.9773 115.459 61.17 114.688 61.17C113.759 61.17 113.056 60.847 112.58 60.201C112.104 59.555 111.866 58.603 111.866 57.345ZM125.664 58.45C125.664 57.8947 125.823 57.4187 126.14 57.022C126.457 56.614 126.894 56.3023 127.449 56.087C128.016 55.8603 128.667 55.747 129.404 55.747C129.835 55.747 130.282 55.781 130.747 55.849C131.212 55.917 131.625 56.019 131.988 56.155V55.407C131.988 54.659 131.767 54.064 131.325 53.622C130.883 53.18 130.271 52.959 129.489 52.959C129.013 52.959 128.543 53.0497 128.078 53.231C127.625 53.401 127.149 53.656 126.65 53.996L126.208 53.18C126.786 52.7833 127.353 52.4887 127.908 52.296C128.463 52.092 129.03 51.99 129.608 51.99C130.696 51.99 131.557 52.3017 132.192 52.925C132.827 53.5483 133.144 54.4097 133.144 55.509V59.606C133.144 59.7647 133.178 59.8837 133.246 59.963C133.314 60.031 133.422 60.0707 133.569 60.082V61C133.444 61.0113 133.337 61.0227 133.246 61.034C133.155 61.0453 133.087 61.0453 133.042 61.034C132.759 61.0227 132.543 60.932 132.396 60.762C132.249 60.592 132.169 60.4107 132.158 60.218L132.141 59.572C131.744 60.082 131.229 60.4787 130.594 60.762C129.959 61.034 129.313 61.17 128.656 61.17C128.089 61.17 127.574 61.051 127.109 60.813C126.656 60.5637 126.299 60.235 126.038 59.827C125.789 59.4077 125.664 58.9487 125.664 58.45ZM131.597 59.13C131.722 58.9713 131.818 58.8183 131.886 58.671C131.954 58.5237 131.988 58.3933 131.988 58.28V56.988C131.603 56.8407 131.2 56.7273 130.781 56.648C130.373 56.5687 129.959 56.529 129.54 56.529C128.713 56.529 128.044 56.6933 127.534 57.022C127.024 57.3507 126.769 57.7983 126.769 58.365C126.769 58.6937 126.854 59.0053 127.024 59.3C127.194 59.5833 127.443 59.8213 127.772 60.014C128.101 60.1953 128.486 60.286 128.928 60.286C129.483 60.286 129.999 60.1783 130.475 59.963C130.962 59.7477 131.336 59.47 131.597 59.13ZM139.825 60.575C139.735 60.609 139.593 60.6713 139.4 60.762C139.208 60.8527 138.975 60.932 138.703 61C138.431 61.068 138.137 61.102 137.819 61.102C137.491 61.102 137.179 61.0397 136.884 60.915C136.601 60.7903 136.374 60.6033 136.204 60.354C136.034 60.0933 135.949 59.776 135.949 59.402V53.061H134.725V52.143H135.949V49.151H137.105V52.143H139.145V53.061H137.105V59.079C137.128 59.3963 137.241 59.6343 137.445 59.793C137.661 59.9517 137.904 60.031 138.176 60.031C138.494 60.031 138.783 59.98 139.043 59.878C139.304 59.7647 139.463 59.6853 139.519 59.64L139.825 60.575ZM144.945 61.17C144.311 61.17 143.721 61.051 143.177 60.813C142.633 60.5637 142.163 60.2293 141.766 59.81C141.37 59.3793 141.058 58.8863 140.831 58.331C140.616 57.7757 140.508 57.1807 140.508 56.546C140.508 55.7187 140.695 54.9593 141.069 54.268C141.455 53.5767 141.982 53.027 142.65 52.619C143.319 52.1997 144.078 51.99 144.928 51.99C145.801 51.99 146.56 52.1997 147.206 52.619C147.864 53.0383 148.379 53.5937 148.753 54.285C149.127 54.965 149.314 55.713 149.314 56.529C149.314 56.6197 149.314 56.7103 149.314 56.801C149.314 56.8803 149.309 56.9427 149.297 56.988H141.715C141.772 57.6227 141.948 58.1893 142.242 58.688C142.548 59.1753 142.939 59.5663 143.415 59.861C143.903 60.1443 144.43 60.286 144.996 60.286C145.574 60.286 146.118 60.1387 146.628 59.844C147.15 59.5493 147.512 59.164 147.716 58.688L148.719 58.96C148.538 59.3793 148.26 59.759 147.886 60.099C147.512 60.439 147.07 60.7053 146.56 60.898C146.062 61.0793 145.523 61.17 144.945 61.17ZM141.681 56.155H148.226C148.181 55.509 148.005 54.9423 147.699 54.455C147.405 53.9677 147.014 53.588 146.526 53.316C146.05 53.0327 145.523 52.891 144.945 52.891C144.367 52.891 143.84 53.0327 143.364 53.316C142.888 53.588 142.497 53.9733 142.191 54.472C141.897 54.9593 141.727 55.5203 141.681 56.155ZM150.928 61V59.334H151.931V61H150.928ZM166.959 49.984H162.658V61H161.468V49.984H157.167V48.93H166.959V49.984ZM175.975 61H174.819V56.053C174.819 55.0557 174.644 54.3077 174.292 53.809C173.941 53.299 173.437 53.044 172.779 53.044C172.349 53.044 171.918 53.1573 171.487 53.384C171.068 53.5993 170.694 53.8997 170.365 54.285C170.048 54.659 169.821 55.0897 169.685 55.577V61H168.529V48.59H169.685V54.149C170.037 53.4917 170.524 52.9703 171.147 52.585C171.782 52.1883 172.456 51.99 173.17 51.99C173.68 51.99 174.111 52.0807 174.462 52.262C174.825 52.4433 175.114 52.7097 175.329 53.061C175.556 53.401 175.72 53.8033 175.822 54.268C175.924 54.7213 175.975 55.237 175.975 55.815V61ZM177.727 58.45C177.727 57.8947 177.885 57.4187 178.203 57.022C178.52 56.614 178.956 56.3023 179.512 56.087C180.078 55.8603 180.73 55.747 181.467 55.747C181.897 55.747 182.345 55.781 182.81 55.849C183.274 55.917 183.688 56.019 184.051 56.155V55.407C184.051 54.659 183.83 54.064 183.388 53.622C182.946 53.18 182.334 52.959 181.552 52.959C181.076 52.959 180.605 53.0497 180.141 53.231C179.687 53.401 179.211 53.656 178.713 53.996L178.271 53.18C178.849 52.7833 179.415 52.4887 179.971 52.296C180.526 52.092 181.093 51.99 181.671 51.99C182.759 51.99 183.62 52.3017 184.255 52.925C184.889 53.5483 185.207 54.4097 185.207 55.509V59.606C185.207 59.7647 185.241 59.8837 185.309 59.963C185.377 60.031 185.484 60.0707 185.632 60.082V61C185.507 61.0113 185.399 61.0227 185.309 61.034C185.218 61.0453 185.15 61.0453 185.105 61.034C184.821 61.0227 184.606 60.932 184.459 60.762C184.311 60.592 184.232 60.4107 184.221 60.218L184.204 59.572C183.807 60.082 183.291 60.4787 182.657 60.762C182.022 61.034 181.376 61.17 180.719 61.17C180.152 61.17 179.636 61.051 179.172 60.813C178.718 60.5637 178.361 60.235 178.101 59.827C177.851 59.4077 177.727 58.9487 177.727 58.45ZM183.66 59.13C183.784 58.9713 183.881 58.8183 183.949 58.671C184.017 58.5237 184.051 58.3933 184.051 58.28V56.988C183.665 56.8407 183.263 56.7273 182.844 56.648C182.436 56.5687 182.022 56.529 181.603 56.529C180.775 56.529 180.107 56.6933 179.597 57.022C179.087 57.3507 178.832 57.7983 178.832 58.365C178.832 58.6937 178.917 59.0053 179.087 59.3C179.257 59.5833 179.506 59.8213 179.835 60.014C180.163 60.1953 180.549 60.286 180.991 60.286C181.546 60.286 182.062 60.1783 182.538 59.963C183.025 59.7477 183.399 59.47 183.66 59.13ZM195.15 61H193.994V56.053C193.994 55.0103 193.841 54.251 193.535 53.775C193.229 53.2877 192.748 53.044 192.09 53.044C191.637 53.044 191.189 53.1573 190.747 53.384C190.305 53.5993 189.914 53.8997 189.574 54.285C189.246 54.659 189.008 55.0897 188.86 55.577V61H187.704V52.143H188.758V54.149C188.996 53.7183 189.308 53.3443 189.693 53.027C190.079 52.6983 190.515 52.4433 191.002 52.262C191.49 52.0807 191.994 51.99 192.515 51.99C193.003 51.99 193.416 52.0807 193.756 52.262C194.096 52.4433 194.368 52.704 194.572 53.044C194.776 53.3727 194.924 53.775 195.014 54.251C195.105 54.7157 195.15 55.237 195.15 55.815V61ZM203.939 61L200.658 56.461L198.771 58.229V61H197.615V48.59H198.771V56.988L203.786 52.16H205.061L201.44 55.781L205.197 61H203.939ZM211.008 63.72C211.167 63.7313 211.32 63.737 211.467 63.737C211.614 63.7483 211.722 63.7427 211.79 63.72C211.926 63.6973 212.056 63.618 212.181 63.482C212.306 63.346 212.453 63.0853 212.623 62.7C212.793 62.3147 213.031 61.748 213.337 61L209.478 52.143H210.702L213.949 59.81L216.941 52.143H218.097L213.507 63.567C213.428 63.7823 213.309 63.9807 213.15 64.162C212.991 64.3547 212.793 64.502 212.555 64.604C212.328 64.7173 212.045 64.7797 211.705 64.791C211.603 64.8023 211.495 64.8023 211.382 64.791C211.28 64.791 211.155 64.7797 211.008 64.757V63.72ZM223.171 61.17C222.536 61.17 221.947 61.051 221.403 60.813C220.87 60.5637 220.405 60.2293 220.009 59.81C219.623 59.3793 219.323 58.892 219.108 58.348C218.892 57.7927 218.785 57.209 218.785 56.597C218.785 55.9623 218.892 55.373 219.108 54.829C219.323 54.2737 219.629 53.7863 220.026 53.367C220.422 52.9363 220.887 52.602 221.42 52.364C221.964 52.1147 222.553 51.99 223.188 51.99C223.822 51.99 224.406 52.1147 224.939 52.364C225.471 52.602 225.936 52.9363 226.333 53.367C226.729 53.7863 227.035 54.2737 227.251 54.829C227.466 55.373 227.574 55.9623 227.574 56.597C227.574 57.209 227.466 57.7927 227.251 58.348C227.035 58.892 226.729 59.3793 226.333 59.81C225.947 60.2293 225.483 60.5637 224.939 60.813C224.406 61.051 223.817 61.17 223.171 61.17ZM219.958 56.614C219.958 57.2713 220.099 57.872 220.383 58.416C220.677 58.9487 221.068 59.3737 221.556 59.691C222.043 59.997 222.581 60.15 223.171 60.15C223.76 60.15 224.298 59.9913 224.786 59.674C225.273 59.3567 225.664 58.926 225.959 58.382C226.253 57.8267 226.401 57.226 226.401 56.58C226.401 55.9227 226.253 55.322 225.959 54.778C225.664 54.234 225.273 53.8033 224.786 53.486C224.298 53.1687 223.76 53.01 223.171 53.01C222.581 53.01 222.043 53.1743 221.556 53.503C221.08 53.8317 220.694 54.268 220.4 54.812C220.105 55.3447 219.958 55.9453 219.958 56.614ZM229.422 57.345V52.143H230.578V57.141C230.578 58.1497 230.748 58.9033 231.088 59.402C231.439 59.9007 231.955 60.15 232.635 60.15C233.088 60.15 233.525 60.0537 233.944 59.861C234.375 59.657 234.754 59.3737 235.083 59.011C235.412 58.637 235.661 58.2063 235.831 57.719V52.143H236.987V59.606C236.987 59.7647 237.021 59.8837 237.089 59.963C237.157 60.031 237.259 60.0707 237.395 60.082V61C237.259 61.0113 237.151 61.017 237.072 61.017C236.993 61.0283 236.919 61.034 236.851 61.034C236.624 61.0113 236.426 60.9207 236.256 60.762C236.097 60.6033 236.012 60.4107 236.001 60.184L235.967 58.994C235.582 59.674 235.055 60.2067 234.386 60.592C233.729 60.9773 233.015 61.17 232.244 61.17C231.315 61.17 230.612 60.847 230.136 60.201C229.66 59.555 229.422 58.603 229.422 57.345Z" fill="black"/>
</svg>
